<svg width="119" height="40" viewBox="0 0 119 40" fill="none" xmlns="http://www.w3.org/2000/svg">
<g clip-path="url(#clip0_2_740)">
<g clip-path="url(#clip1_2_740)">
<path d="M5.14008 0C5.48775 0 5.83542 0 6.18309 0C41.3672 0 76.5514 0 111.736 0C113.717 0 115.351 0.7298 116.742 2.1894C117.298 2.74544 117.403 3.54474 117.855 4.17029C118.063 4.34405 117.994 4.69157 118.202 4.86533C118.202 5.21286 118.202 5.56038 118.202 5.90791C118.202 15.6733 118.202 25.4387 118.202 35.2042C117.994 35.3779 118.063 35.7255 117.855 35.8992C117.855 36.0035 117.855 36.1425 117.855 36.2467C117.715 36.351 117.646 36.49 117.507 36.5943C117.507 36.6985 117.507 36.8375 117.507 36.9418C117.368 37.046 117.298 37.1851 117.159 37.2893C117.055 37.5326 116.916 37.7411 116.812 37.9844C116.672 38.0886 116.568 38.2276 116.464 38.3319C116.36 38.4361 116.22 38.5404 116.116 38.6794C115.734 38.8879 115.386 39.0964 114.969 39.2702C113.926 39.722 112.848 40.0695 111.666 40.0695C76.4123 40.0348 41.1239 40.0695 5.87018 40.0695C5.62682 40.0695 5.41821 40.0695 5.17485 40.0695C5.00101 39.861 4.65334 39.9305 4.47951 39.722C3.7494 39.2702 2.88023 39.0617 2.25442 38.4014C1.03758 37.1156 0.307472 35.6559 0.307472 33.8836C0.307472 24.9522 0.342239 16.0209 0.272705 7.12424C0.272705 5.00434 0.89851 3.30148 2.04582 1.73762C2.18489 1.63336 2.28919 1.52911 2.39349 1.3901C2.63686 1.28584 2.84546 1.14683 3.08883 1.04257C3.19313 0.903562 3.3322 0.834057 3.4365 0.695048C3.5408 0.695048 3.67987 0.695048 3.78417 0.695048C3.88847 0.556038 4.02754 0.486533 4.13184 0.347524C4.23614 0.347524 4.37521 0.347524 4.47951 0.347524C4.65334 0.13901 4.96624 0.208514 5.14008 0Z" fill="#151516"/>
<path d="M18.8119 28.5616C18.0232 28.4039 17.2662 28.6877 16.6353 28.2147C16.1621 27.8994 15.689 27.6787 15.689 26.985C15.689 22.9175 15.689 18.8815 15.689 14.7825C21.0515 14.7825 26.3194 14.7825 31.745 14.7825C31.745 15.2239 31.745 15.6969 31.745 16.1383C31.745 19.5752 31.745 23.0121 31.745 26.449C31.745 26.8904 31.9028 27.3634 31.4296 27.7418C30.9249 28.1832 30.3886 28.53 29.6947 28.4985C29.3792 28.4985 29.0638 28.4985 28.6221 28.4985C28.6221 29.0976 28.5906 29.6967 28.5906 30.2958C28.5906 30.9264 28.496 31.557 28.6221 32.1561C28.8745 33.512 27.2342 34.521 26.004 34.0795C25.2469 33.7957 24.8368 33.0075 24.8368 32.1246C24.8368 31.494 24.8368 30.8633 24.8368 30.2643C24.8368 29.6967 24.8368 29.1291 24.8368 28.53C24.0798 28.53 23.4173 28.53 22.6287 28.53C22.6287 29.6967 22.5972 30.8949 22.6603 32.0615C22.6918 32.6291 22.4395 33.039 22.1871 33.4489C22.0294 33.7327 21.777 34.0795 21.3985 34.1111C20.9253 34.1426 20.2944 34.3002 20.0105 34.0795C19.5058 33.6696 18.7803 33.3228 18.8434 32.3768C18.8749 31.1471 18.8119 29.8859 18.8119 28.5616Z" fill="#A3C538"/>
<path d="M20.0737 7.21516C21.0516 7.27822 21.9664 6.96291 22.8811 6.7422C23.3543 6.61607 23.9537 6.45841 24.206 6.6476C24.8684 7.18363 25.6886 6.71066 26.3826 7.18363C26.8873 7.53047 27.2658 7.18363 27.6759 6.52148C27.9913 6.01698 28.1491 5.32329 28.843 5.07104C28.9692 5.38636 29.0007 5.63861 28.8115 5.92239C28.5591 6.33229 28.4014 6.80526 28.1175 7.18363C27.8336 7.56201 28.0229 7.78272 28.2752 7.94038C29.3477 8.50794 30.0417 9.39081 30.7041 10.3367C31.4928 11.4403 31.8397 12.607 31.7136 13.9944C26.3826 13.9944 21.1147 13.9944 15.7837 13.9944C15.3736 12.8592 15.8783 11.7556 16.3515 10.7782C17.0139 9.4854 18.0549 8.41335 19.4428 7.78272C19.6952 7.71966 19.4428 7.02598 20.0737 7.21516Z" fill="#A3C439"/>
<path d="M60.8921 30.0436C60.5451 30.0436 60.1981 29.9806 59.9142 30.0436C58.6524 30.2959 58.2108 29.5391 57.7377 28.5932C57.296 27.6788 56.6336 26.859 56.0973 25.9761C55.5926 25.1563 55.0879 24.3049 54.6148 23.4536C54.4886 23.5167 54.457 23.5167 54.4255 23.5482C54.3939 23.5797 54.3624 23.6428 54.3624 23.6743C54.3624 25.7554 54.3624 27.8364 54.3624 29.9806C53.6684 29.9806 53.006 29.9806 52.2489 29.9806C52.2805 30.0121 52.2489 29.9806 52.2174 29.949C52.1858 29.9175 52.1543 29.8544 52.1543 29.8229C52.1543 26.386 52.1543 22.9491 52.1543 19.5437C52.312 19.4807 52.3751 19.4176 52.4697 19.4176C53.1953 19.4807 54.1416 19.1023 54.5517 19.5753C54.9617 20.0482 55.2772 20.7104 55.5926 21.3095C56.4443 22.8545 57.3907 24.3365 58.4001 25.7869C58.4632 25.85 58.5578 25.913 58.7155 26.0392C58.7155 23.8004 58.7155 21.6248 58.7155 19.4492C59.5041 19.4492 60.1666 19.4492 60.8921 19.4492C60.8921 22.9491 60.8921 26.4175 60.8921 30.0436Z" fill="white"/>
<path d="M80.7017 29.9806C80.6386 30.0122 80.6071 30.0752 80.5756 30.0437C79.8185 29.9806 78.9353 30.3275 78.3044 29.886C77.7366 29.4761 77.5788 28.6563 77.2634 27.9942C77.1688 27.7734 77.0741 27.5212 76.948 27.3635C76.6325 26.9536 76.6325 26.2915 76.2855 26.1023C75.8439 25.8816 75.1815 25.9762 74.519 25.9446C74.519 27.332 74.519 28.6563 74.519 30.0122C73.762 30.0122 73.0995 30.0122 72.374 30.0122C72.374 26.5122 72.374 22.9807 72.374 19.4177C74.0459 19.4177 75.7177 19.3546 77.3896 19.4492C78.052 19.4807 78.746 19.6384 79.2507 20.206C79.7239 20.742 80.197 21.1204 80.2286 22.0032C80.2601 23.0438 80.197 23.8951 79.5346 24.5888C79.3453 24.778 79.1876 24.9672 78.9668 25.1248C78.5883 25.4401 78.5567 25.6293 78.8406 26.1338C79.5346 27.332 80.0709 28.6563 80.7017 29.9806Z" fill="#FEFEFE"/>
<path d="M62.5638 19.4176C63.9202 19.4176 65.2451 19.2915 66.5384 19.4492C68.2733 19.6384 69.819 20.5212 70.3868 22.4446C70.8284 23.9581 70.8284 25.5347 70.3868 27.0482C69.819 28.9716 68.2733 29.8544 66.5384 30.0436C65.2451 30.1698 63.9202 30.0752 62.5638 30.0752C62.5638 26.5437 62.5638 23.0437 62.5638 19.4176Z" fill="white"/>
<path d="M96.8525 30.0436C96.8525 26.4806 96.8525 23.0121 96.8525 19.4176C98.2089 19.4176 99.5654 19.386 100.89 19.4176C102.373 19.4491 104.234 20.8049 104.676 22.1923C105.18 23.7373 105.086 25.3139 104.707 26.9535C104.486 27.994 103.824 28.6562 103.098 29.2553C102.499 29.7283 101.71 30.012 100.922 30.0436C99.5654 30.1066 98.2089 30.0436 96.8525 30.0436Z" fill="white"/>
<path d="M81.7114 24.6833C81.7429 23.9265 81.7429 23.2013 81.9953 22.4761C82.6577 20.6788 84.2349 19.4491 86.1276 19.4491C86.6323 19.4491 87.137 19.386 87.6417 19.5437C89.7236 20.3004 90.7015 22.0662 90.7962 23.8004C90.8277 24.431 90.8277 25.0616 90.7962 25.6607C90.7015 27.4265 89.7552 29.2553 87.6417 29.8859C85.5598 30.5481 82.8785 29.6652 81.9637 27.0166C81.7114 26.2283 81.7429 25.4715 81.7114 24.6833Z" fill="white"/>
<path d="M41.1138 30.0436C41.6816 28.5616 42.2178 27.2688 42.691 25.9761C43.0695 24.9355 43.4165 23.8635 43.8266 22.8545C44.1105 22.1293 44.3944 21.4356 44.6152 20.6788C44.9306 19.5752 45.183 19.5122 46.3186 19.386C47.1703 19.2915 47.3911 19.6383 47.6119 20.332C48.1166 21.8455 48.7791 23.2644 49.3153 24.7779C49.6623 25.7869 50.0408 26.7643 50.4194 27.7418C50.6402 28.3094 50.7979 28.94 51.1133 29.476C51.3341 29.8544 51.1764 30.0436 50.7348 30.012C50.1985 30.012 49.6938 29.9805 49.1576 30.012C48.716 30.0436 48.5898 29.8229 48.6529 29.476C48.7475 28.94 48.3059 28.5616 48.3059 28.0571C48.3059 27.7733 47.9589 27.4895 47.5173 27.5211C46.7287 27.5526 45.9401 27.5211 45.1514 27.5211C44.3313 27.5211 44.0789 27.7418 43.9528 28.6247C43.9212 28.8139 43.9843 29.0346 43.9528 29.2553C43.8266 29.7283 43.385 30.0436 42.9118 30.0436C42.344 30.0751 41.7762 30.0436 41.1138 30.0436Z" fill="white"/>
<path d="M15.0265 20.1428C15.0265 21.341 15.058 22.5392 15.0265 23.7374C14.9949 24.4941 14.7741 25.1248 13.9224 25.4401C12.6291 25.9446 11.3042 25.2509 11.2727 23.8635C11.2727 21.3725 11.2727 18.8816 11.2727 16.3906C11.2727 15.287 11.9982 14.4672 13.0707 14.4357C13.954 14.4042 14.9949 15.0348 15.0265 16.3906C15.058 17.6203 15.0265 18.8816 15.0265 20.1428Z" fill="#A2C439"/>
<path d="M36.0981 20.0483C36.0981 21.3411 36.0981 22.6339 36.0981 23.9582C36.0981 24.778 35.4041 25.5347 34.5209 25.6924C33.89 25.8185 32.9437 25.3771 32.6282 24.778C32.439 24.4312 32.2812 24.1158 32.2812 23.6744C32.3128 21.278 32.3128 18.8817 32.2812 16.4853C32.2812 15.5394 32.7229 14.9087 33.5746 14.5619C34.3947 14.2151 34.9941 14.6565 35.625 15.0979C36.0035 15.3817 36.0981 15.7286 36.0666 16.17C36.0666 17.4312 36.0981 18.7555 36.0981 20.0483Z" fill="#A2C439"/>
<path d="M92.468 19.4491C93.2881 19.4491 94.0452 19.4491 94.8653 19.4491C94.8653 22.9491 94.8653 26.4175 94.8653 30.012C94.1398 30.1066 93.3197 30.012 92.468 30.0436C92.468 26.5436 92.468 23.0752 92.468 19.4491Z" fill="#F6F6F6"/>
<path d="M42.754 6.89976C43.448 6.89976 44.1104 6.86822 44.8044 6.89976C46.0346 6.93129 47.0756 7.94028 47.1071 9.13847C47.1387 9.70603 47.1387 10.2736 47.1071 10.8411C47.0125 12.26 45.9085 13.0799 44.836 13.1114C44.1735 13.1429 43.4795 13.1114 42.754 13.1114C42.754 11.0619 42.754 9.04387 42.754 6.89976Z" fill="#F4F4F4"/>
<path d="M57.3591 11.7557C57.643 10.6521 57.9269 9.76922 58.1162 8.85482C58.2108 8.35032 58.5578 8.47644 58.8101 8.50797C59.1887 8.53951 59.1256 8.79175 58.9994 9.044C58.4316 10.2422 58.2739 11.5665 57.8638 12.7962C57.7376 13.1115 57.643 13.1746 57.3591 13.1746C57.0436 13.1746 56.9175 13.08 56.8859 12.7647C56.8228 11.9764 56.2235 11.3458 56.255 10.526C56.255 10.4629 56.0973 10.3998 56.0027 10.3683C55.845 10.3368 55.6242 10.3998 55.6242 10.5575C55.6242 11.3773 55.0248 12.0079 54.9933 12.7962C54.9617 13.1746 54.804 13.1746 54.4886 13.2061C54.1731 13.2061 54.11 13.08 54.0154 12.7962C53.5738 11.5665 53.4476 10.2422 52.8482 9.044C52.7536 8.82329 52.7221 8.57104 52.9429 8.53951C53.1952 8.50797 53.6053 8.28726 53.7315 8.72869C53.9523 9.58003 54.1731 10.4314 54.3624 11.2827C54.3939 11.3773 54.3939 11.535 54.457 11.535C54.6778 11.598 54.6147 11.4088 54.6778 11.3142C55.1194 10.7467 54.8986 9.95841 55.2772 9.35932C55.4033 9.17013 55.3403 8.88635 55.5611 8.69716C55.845 8.41338 56.1289 8.38185 56.3181 8.72869C56.5705 9.20166 56.8228 9.70616 56.8544 10.2107C56.8544 10.7467 57.1383 11.1251 57.3591 11.7557Z" fill="#F2F2F2"/>
<path d="M79.5032 8.76012C79.5032 8.16103 79.5032 7.59347 79.5032 7.05744C79.5032 6.74213 79.5979 6.616 79.9448 6.58447C80.3549 6.58447 80.4811 6.67907 80.4811 7.1205C80.4495 8.98084 80.4495 10.8727 80.4811 12.733C80.4811 13.2375 80.1341 13.2691 79.8818 13.1429C79.5032 12.9538 79.2509 13.0168 78.8723 13.1429C78.5253 13.2375 78.0522 13.3321 77.6737 13.0484C77.3582 12.8276 76.7589 12.7646 76.7273 12.3862C76.6642 11.6295 76.128 10.9358 76.475 10.0529C77.0743 8.57093 77.8629 8.1295 79.5032 8.76012Z" fill="#F1F1F1"/>
<path d="M75.4341 11.4087C75.4341 11.661 75.4341 11.9448 75.4341 12.197C75.4341 13.0168 75.4341 12.9222 74.3931 12.9853C74.0146 13.0168 73.5729 13.1745 73.1313 13.1745C72.2796 13.1745 71.7118 12.733 71.6487 12.0078C71.5856 11.0619 71.9957 10.4943 72.9736 10.3682C73.3206 10.3051 73.6991 10.3682 74.0776 10.3682C74.3931 10.3682 74.6454 9.89524 74.4877 9.57993C74.1407 8.88625 73.0051 8.88625 72.6582 9.67453C72.4689 10.0844 72.2481 10.0214 71.9642 10.0529C71.6487 10.0844 71.5856 9.80065 71.6803 9.64299C72.1534 8.69706 73.4152 8.19256 74.4246 8.57094C74.9924 8.79165 75.371 9.23309 75.4341 9.83218C75.4656 10.3367 75.4341 10.8727 75.4341 11.4087Z" fill="white"/>
<path d="M59.6933 10.7465C59.6933 10.1159 59.7248 9.51682 59.6933 8.88619C59.6617 8.35016 60.1034 8.3817 60.2926 8.50782C60.7658 8.82313 61.1443 8.60241 61.6175 8.50782C62.8477 8.25557 63.4471 8.82313 63.4471 10.0528C63.4471 10.9357 63.4471 11.8186 63.4471 12.7015C63.4471 12.9852 63.4155 13.1744 63.037 13.1744C62.69 13.1744 62.4692 13.1429 62.4692 12.7015C62.5007 11.7555 62.4376 10.8411 62.5007 9.89519C62.5323 9.48529 62.2799 9.2961 62.0276 9.16997C61.7752 9.04385 61.4598 9.04385 61.1759 9.2961C60.7658 9.64294 60.545 10.0528 60.5765 10.6204C60.6396 11.3456 60.5765 12.0708 60.6081 12.7961C60.6081 13.1429 60.4504 13.206 60.1349 13.206C59.8195 13.206 59.6617 13.1744 59.6617 12.7961C59.6933 12.1024 59.6933 11.4087 59.6933 10.7465Z" fill="#EFEFF0"/>
<path d="M50.3245 8.47632C51.4917 8.47632 52.4695 9.6745 52.4695 10.9357C52.4695 11.724 51.9648 12.197 51.5232 12.733C51.1131 13.2375 50.64 13.1114 50.1353 13.1745C49.5044 13.2691 49.1889 12.8591 48.8419 12.5123C48.3688 12.0393 48.0533 11.5033 48.0849 10.7781C48.0849 9.54838 49.1258 8.47632 50.3245 8.47632Z" fill="white"/>
<path d="M68.8728 13.1744C67.6742 13.1744 66.6332 12.1023 66.6017 10.8411C66.5701 10.1474 66.8856 9.57984 67.3587 9.10687C67.7373 8.76003 68.0212 8.35013 68.652 8.44472C69.1567 8.50778 69.6615 8.41319 70.04 8.88616C70.4816 9.42218 70.9863 9.89515 70.9863 10.6834C71.0179 11.9762 70.04 13.1429 68.8728 13.1744Z" fill="white"/>
<path d="M88.7141 13.1744C87.5154 13.1744 86.4745 12.1024 86.4429 10.8727C86.4114 10.0844 86.7899 9.54835 87.2946 9.04385C87.6416 8.72854 87.9255 8.3817 88.4933 8.47629C88.998 8.53935 89.5027 8.41323 89.8813 8.91773C90.3229 9.45376 90.8276 9.92672 90.8591 10.715C90.8591 11.9762 89.8497 13.1429 88.7141 13.1744Z" fill="white"/>
<path d="M83.9194 11.1249C83.9194 10.6519 83.8878 10.179 83.9194 9.73753C83.9509 9.32762 83.8563 9.1069 83.3831 9.01231C83.1938 8.98078 83.1938 8.53934 83.3831 8.53934C84.1402 8.50781 83.9509 7.84566 84.2033 7.46728C84.6133 6.89972 85.0234 6.42676 85.812 6.58441C86.0013 6.61594 86.0959 6.67901 86.0959 6.86819C86.1275 7.02585 86.0328 7.24657 85.9066 7.21503C85.4335 7.15197 85.2127 7.30963 85.055 7.7826C84.8026 8.44475 84.7395 8.41322 85.4019 8.47628C85.5597 8.47628 85.7174 8.44475 85.8751 8.47628C86.0328 8.50781 86.1275 8.6024 86.1275 8.79159C86.1275 8.98078 86.0328 9.07537 85.8751 9.1069C85.7174 9.13843 85.5597 9.13843 85.4019 9.1069C85.0234 9.07537 84.8341 9.13843 84.8657 9.6114C84.8972 10.6519 84.8657 11.6925 84.8657 12.7015C84.8657 12.9852 84.8341 13.1744 84.4556 13.1744C84.1086 13.1744 83.8563 13.1429 83.8878 12.6699C83.9509 12.1654 83.9194 11.6609 83.9194 11.1249Z" fill="#F0F0F0"/>
<path d="M65.6553 9.8952C65.6553 10.8411 65.6238 11.7555 65.6553 12.7015C65.6869 13.1429 65.466 13.206 65.0875 13.206C64.709 13.206 64.6774 13.0168 64.6774 12.733C64.6774 10.8727 64.709 8.9808 64.6774 7.12046C64.6774 6.67903 64.8667 6.61597 65.2452 6.61597C65.6238 6.61597 65.6553 6.80515 65.6553 7.08893C65.6553 8.00334 65.6553 8.94927 65.6553 9.8952Z" fill="#E4E4E4"/>
<path d="M91.774 10.652C91.774 10.0214 91.774 9.39076 91.774 8.79167C91.774 8.47636 91.9633 8.50789 92.1841 8.47636C92.468 8.44483 92.6572 8.63401 92.878 8.72861C93.0042 8.79167 93.1935 8.41329 93.5089 8.47636C93.6982 8.50789 93.9505 8.44483 93.9821 8.72861C94.0136 8.94932 93.919 9.07545 93.6666 9.13851C92.7519 9.39076 92.7519 9.39076 92.7519 10.179C92.7519 11.0619 92.7519 11.9448 92.7519 12.8277C92.7519 13.2376 92.468 13.143 92.2156 13.1745C91.9948 13.1745 91.8055 13.1745 91.8055 12.8592C91.774 12.134 91.774 11.4088 91.774 10.652Z" fill="#EBEBEB"/>
<path d="M20.0736 7.21506C19.8843 7.18353 19.7897 7.30966 19.7582 7.46731C19.7266 7.68803 19.7266 7.87722 19.4427 7.84569C19.2535 6.99434 18.9065 6.20607 18.244 5.54391C18.1809 5.48085 18.1809 5.2286 18.244 5.13401C18.3702 4.94482 18.5595 4.97635 18.7803 5.10248C19.4427 5.67004 19.6635 6.52138 20.0736 7.21506Z" fill="#8CA147"/>
<path d="M27.4236 11.2827C26.9819 11.3142 26.698 11.0304 26.698 10.6836C26.6665 10.3052 26.9819 10.053 27.392 10.053C27.8021 10.0215 28.3383 10.4314 28.2122 10.7467C28.1175 11.062 27.8652 11.3458 27.4236 11.2827Z" fill="#F0F5DE"/>
<path d="M20.7046 10.589C20.7677 10.8413 20.3892 11.2512 20.0422 11.2827C19.6636 11.3458 19.1274 10.9674 19.1589 10.6521C19.1905 10.3052 19.4428 10.116 19.7583 10.0215C20.0422 9.92686 20.6415 10.2737 20.7046 10.589Z" fill="#F0F5DF"/>
<path d="M74.4877 24.431C74.4877 23.2644 74.4877 22.1608 74.4877 20.9941C75.1816 20.9941 75.8441 20.9626 76.5065 20.9941C77.3898 21.0572 77.926 21.7193 77.926 22.6968C77.926 23.6743 77.3898 24.3364 76.5065 24.3995C75.9072 24.4625 75.2763 24.431 74.4877 24.431Z" fill="#201F21"/>
<path d="M64.7404 28.4986C64.7404 25.9446 64.7404 23.5482 64.7404 21.1204C65.9706 20.7735 66.98 21.0888 67.8632 22.0348C68.1471 22.3185 68.1471 22.6338 68.2418 22.9807C68.6203 24.305 68.6518 25.1879 68.2102 26.4806C67.7371 27.9311 67.0431 28.4671 65.6551 28.4986C65.3712 28.4986 65.0873 28.4986 64.7404 28.4986Z" fill="#151516"/>
<path d="M99.0608 21.0572C100.228 20.868 101.174 21.0888 102.026 21.9086C102.499 22.35 102.247 23.0122 102.783 23.3275C102.783 24.5572 102.972 25.7869 102.436 26.9535C102.058 27.7734 101.3 28.3409 100.354 28.4986C99.944 28.5616 99.534 28.4986 99.0608 28.4986C99.0608 26.0076 99.0608 23.5797 99.0608 21.0572Z" fill="#151516"/>
<path d="M88.6196 24.904C88.7457 25.6608 88.4934 26.449 88.1464 27.2373C87.6101 28.467 86.4114 28.8454 85.2128 28.1832C84.7711 27.931 84.3926 27.4265 84.3295 27.1112C84.1403 26.2598 83.7617 25.377 83.8879 24.4626C83.951 24.1157 84.3926 22.4446 84.5188 22.0662C84.7711 21.1518 85.4967 20.9941 86.2537 20.9941C87.0108 20.9941 87.6417 21.1833 88.0202 22.0347C88.5565 23.3274 88.6196 23.2959 88.6196 24.904Z" fill="#151516"/>
<path d="M44.9306 25.9761C45.246 25.0617 45.5615 24.2104 45.8138 23.3906C45.8769 23.2014 45.8138 22.9807 46.0031 22.8545C46.1293 22.76 46.2239 22.6969 46.3501 22.6023C46.3816 22.6969 46.4447 22.76 46.4763 22.8545C46.7286 23.7374 46.9179 24.6203 47.328 25.4401C47.5172 25.8185 47.4226 26.0077 46.981 26.0077C46.3186 25.9761 45.6561 25.9761 44.9306 25.9761Z" fill="#151516"/>
<path d="M43.6372 7.59358C44.4574 7.46745 45.1198 7.43592 45.6876 8.12961C46.003 8.50798 46.2238 8.85482 46.1608 9.35932C46.1292 9.76922 46.1608 10.1791 46.1608 10.589C46.1608 11.5665 45.593 12.2917 44.6782 12.544C43.9527 12.7332 43.6688 12.5124 43.6688 11.7557C43.6372 10.3998 43.6372 9.04401 43.6372 7.59358Z" fill="#151516"/>
<path d="M79.5031 10.8097C79.5031 10.9673 79.5031 11.125 79.5031 11.2827C79.5031 12.0709 79.3769 12.2916 78.746 12.5124C78.3044 12.67 77.8312 12.4493 77.4527 11.9448C77.0111 11.3457 77.295 9.76916 77.8943 9.29619C78.2729 9.01241 78.5568 9.107 78.9668 9.32772C79.3138 9.51691 79.5346 9.6115 79.4716 10.0529C79.4716 10.3052 79.5031 10.5574 79.5031 10.8097Z" fill="#201F21"/>
<path d="M74.4876 11.661C74.4876 12.1024 73.9513 12.5123 73.4151 12.5438C72.9419 12.5754 72.5949 12.2285 72.5949 11.6925C72.5949 11.3141 73.2573 10.9988 73.9829 10.9673C74.6138 10.9358 74.456 11.3457 74.4876 11.661Z" fill="#201F21"/>
<path d="M48.9997 10.652C48.9051 10.179 49.0313 9.67449 49.5675 9.29612C50.0722 8.94928 50.8924 9.01234 51.1447 9.54837C51.5233 10.3051 51.7125 11.0934 51.2078 11.9132C50.8293 12.5123 50.64 12.67 50.0091 12.5438C49.6306 12.4808 49.0313 11.9132 48.9997 11.5664C48.9682 11.2826 48.9997 11.0303 48.9997 10.652Z" fill="#212122"/>
<path d="M67.548 10.7465C67.548 9.61135 68.0842 9.01226 68.999 9.07532C69.2198 9.10685 69.3775 9.16991 69.5353 9.32757C70.2608 10.0528 70.2608 11.5347 69.5668 12.2915C69.2198 12.6699 68.7467 12.6068 68.4312 12.4807C68.0527 12.323 67.6426 12.0077 67.5795 11.5032C67.548 11.2825 67.548 10.9987 67.548 10.7465Z" fill="#212122"/>
<path d="M87.3578 10.6835C87.2316 10.1475 87.4524 9.61147 88.0202 9.2331C88.4618 8.91779 89.2505 9.07545 89.5028 9.51688C89.8813 10.2736 90.1022 10.9988 89.5974 11.8817C89.282 12.4493 88.9666 12.6069 88.3988 12.5439C87.9256 12.5123 87.3893 11.9132 87.3578 11.4403C87.3578 11.2196 87.3578 11.0304 87.3578 10.6835Z" fill="#212122"/>
</g>
<rect x="0.772705" y="0.5" width="116.895" height="39" rx="5.5" stroke="#A6A6A6"/>
</g>
<defs>
<clipPath id="clip0_2_740">
<rect width="117.895" height="40" fill="white" transform="translate(0.272705)"/>
</clipPath>
<clipPath id="clip1_2_740">
<rect x="0.272705" width="117.895" height="40" rx="6" fill="white"/>
</clipPath>
</defs>
</svg>
