<svg width="742" height="1422" viewBox="0 0 371 711" fill="none" xmlns="http://www.w3.org/2000/svg">
<path d="M431.125 120.335L403.546 147.665L367.06 126.903L431.125 120.335Z" fill="#16130C"/>
<path d="M431.125 120.335L367.06 126.903L389.471 106.108L431.125 120.335Z" fill="#4B3923"/>
<path d="M414.494 230.779L421.182 267.27L367.06 243.722L414.494 230.779Z" fill="#BE964E"/>
<path d="M421.182 267.27L391.633 286.868L367.06 243.721L421.182 267.27Z" fill="#CB9C53"/>
<path d="M414.494 230.779L367.06 243.721L386.078 211.759L414.494 230.779Z" fill="#CCA257"/>
<path d="M403.546 147.665L373.129 179.403L367.06 126.903L403.546 147.665Z" fill="#1C170C"/>
<path d="M400.668 312.881L402.742 346.755L365.026 310.256L400.668 312.881Z" fill="#DEB273"/>
<path d="M402.742 346.755L386.079 410.985L351.836 358.139L402.742 346.755Z" fill="#D6AA61"/>
<path d="M402.742 346.755L351.836 358.139L365.026 310.256L402.742 346.755Z" fill="#DCB274"/>
<path d="M393.9 56.1132L402.702 81.1228L352.672 77.7106L393.9 56.1132Z" fill="#352513"/>
<path d="M402.702 81.1228L389.471 106.108L352.672 77.7106L402.702 81.1228Z" fill="#221D10"/>
<path d="M386.079 410.985L400.668 475.239L328.87 451.707L386.079 410.985Z" fill="#E2B676"/>
<path d="M400.668 475.239L395.934 499.574L318.236 472.606L400.668 475.239Z" fill="#D9AE65"/>
<path d="M400.668 312.881L365.026 310.256L384.56 299.746L400.668 312.881Z" fill="#CCA15B"/>
<path d="M400.668 475.239L318.236 472.605L328.87 451.707L400.668 475.239Z" fill="#DCB16E"/>
<path d="M397.284 682.1V719.282L326.571 693.589L397.284 682.1Z" fill="#DDB369"/>
<path d="M396.609 645.593L397.284 682.1L334.151 650.836L396.609 645.593Z" fill="#DCB368"/>
<path d="M397.284 682.101L326.571 693.59L334.151 650.836L397.284 682.101Z" fill="#D1A354"/>
<path d="M397.284 719.282L322.005 735.211L326.571 693.59L397.284 719.282Z" fill="#D3A752"/>
<path d="M396.609 615.261V645.594L334.151 650.837L396.609 615.261Z" fill="#DEB067"/>
<path d="M395.933 578.072L396.609 615.261L351.096 607.056L395.933 578.072Z" fill="#DBAD64"/>
<path d="M396.609 615.261L334.151 650.837L351.096 607.056L396.609 615.261Z" fill="#DCB368"/>
<path d="M395.934 499.574L393.9 533.376L337.527 516.844L395.934 499.574Z" fill="#D3A65C"/>
<path d="M393.9 533.375L395.934 578.072L357.422 573.696L393.9 533.375Z" fill="#D7A860"/>
<path d="M395.934 499.574L337.528 516.844L318.236 472.606L395.934 499.574Z" fill="#D8AE68"/>
<path d="M395.934 578.072L351.096 607.055L357.422 573.696L395.934 578.072Z" fill="#D7A95E"/>
<path d="M393.9 533.376L357.422 573.696L337.527 516.844L393.9 533.376Z" fill="#C7974D"/>
<path d="M393.9 56.1131L352.672 77.7105L362.092 42.5927L393.9 56.1131Z" fill="#1E1C0F"/>
<path d="M367.06 243.721L391.633 286.868L368.169 274.207L367.06 243.721Z" fill="#755127"/>
<path d="M391.633 286.868L384.559 299.746L368.169 274.207L391.633 286.868Z" fill="#B27F45"/>
<path d="M389.471 106.108L367.06 126.903L352.672 77.7106L389.471 106.108Z" fill="#2E2514"/>
<path d="M373.129 179.403L386.079 211.759L336.619 225.584L373.129 179.403Z" fill="#E5BA77"/>
<path d="M386.079 211.759L367.06 243.721L336.619 225.584L386.079 211.759Z" fill="#DDB779"/>
<path d="M351.836 358.14L386.079 410.985L337.527 403.237L351.836 358.14Z" fill="#D0A365"/>
<path d="M386.079 410.985L328.87 451.707L337.527 403.237L386.079 410.985Z" fill="#E6C081"/>
<path d="M368.169 274.207L384.56 299.746L365.026 295.788L368.169 274.207Z" fill="#AC7A3F"/>
<path d="M384.56 299.746L365.026 310.256V295.788L384.56 299.746Z" fill="#B28142"/>
<path d="M367.06 126.903L373.129 179.403L332.222 145.385L367.06 126.903Z" fill="#221C0F"/>
<path d="M373.129 179.403L336.619 225.585L332.222 145.385L373.129 179.403Z" fill="#DFC388"/>
<path d="M367.06 243.721L368.169 274.207L340.116 256.11L367.06 243.721Z" fill="#4E381F"/>
<path d="M368.169 274.207L365.026 295.788L351.779 284.853L368.169 274.207Z" fill="#8D6332"/>
<path d="M368.169 274.207L351.779 284.853L340.116 256.11L368.169 274.207Z" fill="#875D2C"/>
<path d="M352.672 77.7106L367.06 126.903L332.222 145.385L352.672 77.7106Z" fill="#13130F"/>
<path d="M367.06 243.721L340.116 256.11L336.619 225.584L367.06 243.721Z" fill="#272010"/>
<path d="M365.026 295.788V310.256L354.761 299.594L365.026 295.788Z" fill="#6A4520"/>
<path d="M354.762 299.594L365.026 310.256L324.867 301.785L354.762 299.594Z" fill="#906130"/>
<path d="M365.026 310.256L351.836 358.139L311.885 328.216L365.026 310.256Z" fill="#ECCB9B"/>
<path d="M365.026 295.788L354.761 299.594L351.779 284.853L365.026 295.788Z" fill="#644525"/>
<path d="M365.026 310.256L311.885 328.216L324.867 301.785L365.026 310.256Z" fill="#E7CA9F"/>
<path d="M350.59 26.3665L362.092 42.5927L312.665 58.9633L350.59 26.3665Z" fill="#3A3118"/>
<path d="M362.092 42.5927L352.672 77.7105L312.665 58.9633L362.092 42.5927Z" fill="#2B2412"/>
<path d="M337.527 516.844L357.422 573.696L300.326 578.136L337.527 516.844Z" fill="#D3A861"/>
<path d="M357.422 573.696L351.096 607.055L326.571 602.134L357.422 573.696Z" fill="#B17B32"/>
<path d="M357.422 573.696L326.571 602.134L300.326 578.136L357.422 573.696Z" fill="#B4813F"/>
<path d="M351.779 284.853L354.762 299.594L332.222 284.853H351.779Z" fill="#3D2913"/>
<path d="M354.762 299.594L324.867 301.786L332.222 284.853L354.762 299.594Z" fill="#4A4328"/>
<path d="M352.672 77.7106L332.222 145.385L312.665 58.9634L352.672 77.7106Z" fill="#3F311E"/>
<path d="M351.836 358.14L337.527 403.237L286.396 376.229L351.836 358.14Z" fill="#ECCB9B"/>
<path d="M351.836 358.14L286.396 376.228L283.47 358.14H351.836Z" fill="#DDB181"/>
<path d="M351.836 358.139H283.47L311.885 328.216L351.836 358.139Z" fill="#DFB784"/>
<path d="M340.116 256.11L351.779 284.853L326.225 269.799L340.116 256.11Z" fill="#976F3C"/>
<path d="M351.779 284.853H332.222L326.225 269.799L351.779 284.853Z" fill="#453319"/>
<path d="M351.096 607.056L334.152 650.837L318.236 623.467L351.096 607.056Z" fill="#C99A4B"/>
<path d="M351.096 607.056L318.236 623.467L326.571 602.134L351.096 607.056Z" fill="#9A652F"/>
<path d="M350.59 26.3665L312.665 58.9633L316.748 27.7234L350.59 26.3665Z" fill="#362714"/>
<path d="M336.619 225.584L340.116 256.11L316.21 249.566L336.619 225.584Z" fill="#382E20"/>
<path d="M340.116 256.11L326.226 269.799L316.21 249.566L340.116 256.11Z" fill="#A07C42"/>
<path d="M337.527 403.237L328.87 451.707L291.548 425.525L337.527 403.237Z" fill="#D6AE7C"/>
<path d="M318.236 472.606L337.527 516.844L277.16 493.304L318.236 472.606Z" fill="#D6AA6A"/>
<path d="M337.527 516.844L300.326 578.136L272.289 529.024L337.527 516.844Z" fill="#DAA960"/>
<path d="M337.527 403.237L291.548 425.525L292.995 400.034L337.527 403.237Z" fill="#EBC094"/>
<path d="M337.527 403.237L292.995 400.034L286.396 376.228L337.527 403.237Z" fill="#CE935A"/>
<path d="M337.527 516.844L272.289 529.024L277.16 493.304L337.527 516.844Z" fill="#B9833F"/>
<path d="M332.222 145.385L336.619 225.585L295.6 180.607L332.222 145.385Z" fill="#CEA96B"/>
<path d="M295.6 180.607L336.619 225.584L295.6 227.11V180.607Z" fill="#E3C28F"/>
<path d="M336.619 225.584L316.21 249.566L295.6 227.11L336.619 225.584Z" fill="#17140D"/>
<path d="M318.236 623.466L334.151 650.837L278.454 647.537L318.236 623.466Z" fill="#BB843E"/>
<path d="M334.151 650.837L326.571 693.59L278.454 647.537L334.151 650.837Z" fill="#DBB268"/>
<path d="M312.665 58.9634L332.222 145.385L291.331 132.82L312.665 58.9634Z" fill="#1E160C"/>
<path d="M326.226 269.799L332.222 284.853L311.885 279.819L326.226 269.799Z" fill="#372816"/>
<path d="M332.222 284.853L324.867 301.785L311.885 279.819L332.222 284.853Z" fill="#292419"/>
<path d="M332.222 145.385L295.6 180.608L291.331 132.82L332.222 145.385Z" fill="#E8D1A1"/>
<path d="M328.87 451.707L318.236 472.606L306.275 463.902L328.87 451.707Z" fill="#6E4A25"/>
<path d="M328.87 451.707L306.275 463.902L291.548 449.828L328.87 451.707Z" fill="#C8A36E"/>
<path d="M328.87 451.707L291.548 449.828V425.525L328.87 451.707Z" fill="#805A2A"/>
<path d="M326.571 602.134L318.236 623.467H287.57L326.571 602.134Z" fill="#714A20"/>
<path d="M326.571 693.59L322.006 735.211L260.191 696.215L326.571 693.59Z" fill="#D3AA5D"/>
<path d="M326.571 602.134L287.57 623.467L300.326 578.136L326.571 602.134Z" fill="#B27E3E"/>
<path d="M326.571 693.59L260.191 696.215L278.454 647.537L326.571 693.59Z" fill="#DAAC60"/>
<path d="M316.21 249.566L326.226 269.799L302.609 271.943L316.21 249.566Z" fill="#634628"/>
<path d="M326.226 269.799L311.885 279.819L302.609 271.942L326.226 269.799Z" fill="#53391E"/>
<path d="M311.885 279.819L324.867 301.785L311.885 328.216L308.919 297.811L291.331 283.191L311.885 279.819Z" fill="#4A4328"/>
<path d="M322.006 735.211L263.214 752.553L260.191 696.215L322.006 735.211Z" fill="#C19141"/>
<path d="M318.236 472.606L277.16 493.304L284.885 470.084L318.236 472.606Z" fill="#D0A77D"/>
<path d="M318.236 472.606L284.885 470.085L306.275 463.903L318.236 472.606Z" fill="#331C0E"/>
<path d="M318.236 623.466L278.454 647.537L287.57 623.466H318.236Z" fill="#68451C"/>
<path d="M316.748 27.7232L312.665 58.9632L273.165 53.4072L316.748 27.7232Z" fill="#5A4826"/>
<path d="M316.748 27.7236L273.165 53.4076L295.761 8.11731L316.748 27.7236Z" fill="#453E25"/>
<path d="M295.6 227.11L316.21 249.566L288.518 253.693L295.6 227.11Z" fill="#1E160D"/>
<path d="M316.21 249.566L302.609 271.943L288.518 253.693L316.21 249.566Z" fill="#452C16"/>
<path d="M312.665 58.9634L291.331 132.82L241.382 115.919L312.665 58.9634Z" fill="#0D0D09"/>
<path d="M312.665 58.9632L241.382 115.919L273.165 53.4073L312.665 58.9632Z" fill="#17110B"/>
<path d="M308.919 297.811L311.885 328.216L295.6 299.746L308.919 297.811Z" fill="#B48447"/>
<path d="M295.6 299.746L311.885 328.216L273.165 331.861L295.6 299.746Z" fill="#E4B683"/>
<path d="M311.885 328.216L283.47 358.139L273.165 331.861L311.885 328.216Z" fill="#D4B387"/>
<path d="M311.885 279.819L291.331 283.191L302.609 271.942L311.885 279.819Z" fill="#241A0F"/>
<path d="M308.919 297.811L295.6 299.746L291.331 283.191L308.919 297.811Z" fill="#573E26"/>
<path d="M306.275 463.902L284.885 470.085L291.549 449.828L306.275 463.902Z" fill="#472617"/>
<path d="M288.518 253.693L302.609 271.942L286.396 276.045L288.518 253.693Z" fill="#4A2D16"/>
<path d="M302.609 271.942L291.331 283.191L286.396 276.045L302.609 271.942Z" fill="#341F11"/>
<path d="M272.289 529.024L300.326 578.136L249.122 580.207L272.289 529.024Z" fill="#D2AA6C"/>
<path d="M300.326 578.136L287.569 623.467L249.122 580.207L300.326 578.136Z" fill="#463117"/>
<path d="M295.76 8.11731L273.165 53.4076L265.311 8.79173L295.76 8.11731Z" fill="#3B2813"/>
<path d="M295.6 180.607V227.11L257.748 232.963L295.6 180.607Z" fill="#C1945C"/>
<path d="M291.331 132.82L295.6 180.608L239.918 179.403L291.331 132.82Z" fill="#E2C694"/>
<path d="M295.6 180.607L257.747 232.963L239.918 179.403L295.6 180.607Z" fill="#D1A466"/>
<path d="M295.6 227.11L288.518 253.693L257.748 232.963L295.6 227.11Z" fill="#382A18"/>
<path d="M291.331 283.191L295.6 299.746L271.63 293.195L291.331 283.191Z" fill="#24150D"/>
<path d="M295.6 299.746L273.165 331.861L275.44 306.065L295.6 299.746Z" fill="#DDAD70"/>
<path d="M295.6 299.746L275.44 306.065L271.63 293.195L295.6 299.746Z" fill="#A47B51"/>
<path d="M286.396 376.228L292.995 400.034L269.885 389.749L286.396 376.228Z" fill="#C37A3F"/>
<path d="M292.995 400.034L291.549 425.525L263.776 405.485L292.995 400.034Z" fill="#DEB789"/>
<path d="M292.995 400.034L263.776 405.485L269.885 389.749L292.995 400.034Z" fill="#DDA96E"/>
<path d="M291.548 425.525V449.828L269.885 431.322L291.548 425.525Z" fill="#C4944E"/>
<path d="M291.549 449.828L284.885 470.085L263.776 460.924L291.549 449.828Z" fill="#4A291B"/>
<path d="M291.549 425.525L269.885 431.322L263.776 405.485L291.549 425.525Z" fill="#B08B4C"/>
<path d="M291.549 449.828L263.776 460.924L269.885 431.322L291.549 449.828Z" fill="#7C4931"/>
<path d="M286.396 276.045L291.331 283.191L271.63 293.195L286.396 276.045Z" fill="#22170E"/>
<path d="M291.331 132.82L239.918 179.403L241.381 115.92L291.331 132.82Z" fill="#C89850"/>
<path d="M288.518 253.693L286.396 276.045L252.732 261.208L250.73 260.325L288.518 253.693Z" fill="#4F3318"/>
<path d="M288.518 253.693L250.73 260.325L257.747 232.963L288.518 253.693Z" fill="#2E1E0F"/>
<path d="M249.123 580.207L287.57 623.466L237.186 631.399L249.123 580.207Z" fill="#281F10"/>
<path d="M287.57 623.466L278.454 647.537L237.186 631.399L287.57 623.466Z" fill="#61411F"/>
<path d="M286.396 276.045L271.63 293.195L252.732 261.208L286.396 276.045Z" fill="#392612"/>
<path d="M283.47 358.14L286.396 376.228L263.776 372.158L283.47 358.14Z" fill="#DAA16D"/>
<path d="M286.396 376.228L269.885 389.749L263.776 372.158L286.396 376.228Z" fill="#864121"/>
<path d="M284.885 470.084L277.16 493.304L246.832 473.127L284.885 470.084Z" fill="#EEC8B2"/>
<path d="M284.885 470.085L246.832 473.128L263.776 460.924L284.885 470.085Z" fill="#D3A189"/>
<path d="M273.165 331.861L283.47 358.139L257.748 337.409L273.165 331.861Z" fill="#E6B47A"/>
<path d="M283.47 358.14L263.776 372.158L250.73 366.024L283.47 358.14Z" fill="#804727"/>
<path d="M283.47 358.14L250.73 366.024L257.748 337.409L283.47 358.14Z" fill="#BA7C48"/>
<path d="M278.454 647.537L260.191 696.215L230.072 655.188L278.454 647.537Z" fill="#B57C3C"/>
<path d="M278.454 647.537L230.072 655.188L237.186 631.399L278.454 647.537Z" fill="#5B3B19"/>
<path d="M277.16 493.304L272.289 529.024L237.748 499.398L277.16 493.304Z" fill="#51371C"/>
<path d="M277.16 493.304L237.748 499.398L246.831 473.128L277.16 493.304Z" fill="#CF997D"/>
<path d="M271.63 293.195L275.44 306.065L259.596 303.785L271.63 293.195Z" fill="#D5AC78"/>
<path d="M275.44 306.065L273.165 331.861L259.596 303.785L275.44 306.065Z" fill="#E2AA6E"/>
<path d="M265.312 8.7915L273.165 53.4074L224.019 0L265.312 8.7915Z" fill="#211B0F"/>
<path d="M224.019 0L273.165 53.4074L216.214 58.9633L224.019 0Z" fill="#272010"/>
<path d="M273.165 53.4073L241.382 115.919L216.214 58.9632L273.165 53.4073Z" fill="#232012"/>
<path d="M259.596 303.785L273.165 331.861L257.748 337.409L259.596 303.785Z" fill="#E7B477"/>
<path d="M272.289 529.024L249.122 580.207L222.299 533.898L272.289 529.024Z" fill="#C7974D"/>
<path d="M272.289 529.024L222.299 533.897L237.748 499.398L272.289 529.024Z" fill="#3E2A13"/>
<path d="M252.732 261.208L271.63 293.195L259.596 303.785L250.73 260.325L252.732 261.208Z" fill="#D7A35D"/>
<path d="M263.776 372.158L269.885 389.749L239.918 380.949L263.776 372.158Z" fill="#36190F"/>
<path d="M269.885 389.749L263.776 405.485L239.918 380.949L269.885 389.749Z" fill="#482512"/>
<path d="M263.776 405.485L269.885 431.322L244.203 420.539L263.776 405.485Z" fill="#9A6B38"/>
<path d="M269.885 431.322L263.776 460.924L227.379 462.313L269.885 431.322Z" fill="#613624"/>
<path d="M269.885 431.322L227.379 462.313L244.203 420.539L269.885 431.322Z" fill="#8E4F3B"/>
<path d="M239.919 380.949L263.776 405.485L225.538 400.034L239.919 380.949Z" fill="#C18E52"/>
<path d="M263.776 372.158L239.918 380.949L250.73 366.024L263.776 372.158Z" fill="#120C0B"/>
<path d="M263.776 405.485L244.203 420.539L225.538 400.034L263.776 405.485Z" fill="#905D31"/>
<path d="M263.776 460.924L246.832 473.128L227.379 462.313L263.776 460.924Z" fill="#C77561"/>
<path d="M260.191 696.215L263.213 752.553L208.167 703.32L260.191 696.215Z" fill="#996929"/>
<path d="M263.213 752.553L212.002 760.293L208.167 703.32L263.213 752.553Z" fill="#774F20"/>
<path d="M230.072 655.188L260.191 696.215L208.167 703.32L230.072 655.188Z" fill="#825826"/>
<path d="M250.73 260.325L259.596 303.785L237.435 301.785L250.73 260.325Z" fill="#E1B671"/>
<path d="M259.596 303.784L257.748 337.409L237.435 301.785L259.596 303.784Z" fill="#DEA66C"/>
<path d="M239.918 179.403L257.747 232.963H221.061L239.918 179.403Z" fill="#AB7443"/>
<path d="M257.747 232.963L250.73 260.325L220.627 266.17L257.747 232.963Z" fill="#D0A26B"/>
<path d="M237.435 301.785L257.748 337.409H235.988L237.435 301.785Z" fill="#DCA76E"/>
<path d="M257.748 337.409L250.73 366.024L235.988 337.409H257.748Z" fill="#C28958"/>
<path d="M257.747 232.963L220.627 266.17L221.061 232.963H257.747Z" fill="#9B704C"/>
<path d="M250.73 260.325L237.435 301.785L220.627 266.17L250.73 260.325Z" fill="#DFAE70"/>
<path d="M235.988 337.409L250.73 366.024L232.025 361.351L235.988 337.409Z" fill="#A26B44"/>
<path d="M250.73 366.024L239.919 380.949L232.025 361.351L250.73 366.024Z" fill="#5D3B1F"/>
<path d="M222.299 533.897L249.122 580.207L191.014 582.648L222.299 533.897Z" fill="#644525"/>
<path d="M249.122 580.207L237.185 631.399L191.014 582.648L249.122 580.207Z" fill="#251C0E"/>
<path d="M246.831 473.128L237.748 499.398L204.253 475.633L246.831 473.128Z" fill="#834235"/>
<path d="M246.831 473.127L204.253 475.632L227.379 462.313L246.831 473.127Z" fill="#B66253"/>
<path d="M225.538 400.034L244.203 420.539L206.873 419.423L225.538 400.034Z" fill="#A7713A"/>
<path d="M244.203 420.539L227.379 462.313L206.873 419.423L244.203 420.539Z" fill="#633424"/>
<path d="M216.214 58.9634L241.382 115.919L166.658 120.255L216.214 58.9634Z" fill="#0D0D0A"/>
<path d="M241.381 115.92L239.918 179.403L185.628 180.608L241.381 115.92Z" fill="#905B2C"/>
<path d="M241.382 115.92L185.628 180.608L166.658 120.255L241.382 115.92Z" fill="#3C2B15"/>
<path d="M239.918 179.403L221.061 232.963L185.628 180.607L239.918 179.403Z" fill="#BC884C"/>
<path d="M232.025 361.351L239.918 380.949H220.627L232.025 361.351Z" fill="#482F17"/>
<path d="M239.918 380.949L225.538 400.034L220.627 380.949H239.918Z" fill="#271A0E"/>
<path d="M237.748 499.398L222.299 533.897L191.014 493.304L237.748 499.398Z" fill="#382812"/>
<path d="M237.748 499.398L191.014 493.304L204.253 475.632L237.748 499.398Z" fill="#934F40"/>
<path d="M220.627 266.17L237.435 301.786L210.105 309.381L220.627 266.17Z" fill="#C1864D"/>
<path d="M237.435 301.785L235.988 337.409L210.105 309.381L237.435 301.785Z" fill="#D69C64"/>
<path d="M191.014 582.648L237.186 631.399H180.789L191.014 582.648Z" fill="#2A2211"/>
<path d="M237.186 631.399L230.072 655.188L180.789 631.399H237.186Z" fill="#5C4118"/>
<path d="M210.105 309.381L235.988 337.409L210.105 341.496V309.381Z" fill="#B67948"/>
<path d="M235.988 337.409L232.025 361.351L210.105 341.496L235.988 337.409Z" fill="#9E673F"/>
<path d="M232.025 361.351L220.627 380.949L211.487 374.751L232.025 361.351Z" fill="#4F3118"/>
<path d="M232.025 361.351L211.487 374.751L210.105 341.496L232.025 361.351Z" fill="#5C3B24"/>
<path d="M230.072 655.188L208.167 703.321L166.545 650.836L230.072 655.188Z" fill="#62431F"/>
<path d="M230.072 655.188L166.545 650.836L180.789 631.399L230.072 655.188Z" fill="#67441A"/>
<path d="M206.873 419.423L227.379 462.313H185.628L206.873 419.423Z" fill="#4A291B"/>
<path d="M227.379 462.313L204.253 475.632L185.628 462.313H227.379Z" fill="#8D4537"/>
<path d="M220.627 380.949L225.538 400.034L197.099 392.977L220.627 380.949Z" fill="#2E2010"/>
<path d="M225.538 400.034L206.873 419.423L185.628 407.669L225.538 400.034Z" fill="#302112"/>
<path d="M225.538 400.034L185.628 407.669L197.099 392.976L225.538 400.034Z" fill="#342213"/>
<path d="M224.019 0L216.214 58.9633L171.231 4.73698L224.019 0Z" fill="#1E1A10"/>
<path d="M191.014 493.304L222.299 533.897H178.82L191.014 493.304Z" fill="#462F16"/>
<path d="M222.299 533.897L191.014 582.648L178.82 533.897H222.299Z" fill="#624328"/>
<path d="M185.628 180.607L221.061 232.963H179.873L185.628 180.607Z" fill="#95643A"/>
<path d="M221.061 232.963L220.627 266.17L179.873 232.963H221.061Z" fill="#5F3F25"/>
<path d="M220.627 266.17L210.105 309.381L195.933 303.785L220.627 266.17Z" fill="#613F23"/>
<path d="M220.627 266.17L195.933 303.785L196.97 281.746L220.627 266.17Z" fill="#402C17"/>
<path d="M220.627 266.17L196.97 281.746L180.845 257.844L220.627 266.17Z" fill="#3D2B14"/>
<path d="M220.627 266.17L180.845 257.844L179.873 232.963L220.627 266.17Z" fill="#281E10"/>
<path d="M220.627 380.949L197.099 392.976L211.487 374.751L220.627 380.949Z" fill="#3E2914"/>
<path d="M171.232 4.73694L216.214 58.9633L147.744 64.2382L171.232 4.73694Z" fill="#272010"/>
<path d="M216.214 58.9634L166.658 120.255L147.744 64.2383L216.214 58.9634Z" fill="#291E12"/>
<path d="M208.167 703.32L212.002 760.293L140.533 716.969L208.167 703.32Z" fill="#784F21"/>
<path d="M210.105 341.496L211.487 374.751L195.933 366.024L210.105 341.496Z" fill="#58391F"/>
<path d="M211.487 374.751L197.099 392.976L185.628 379.745L211.487 374.751Z" fill="#341F0F"/>
<path d="M211.487 374.751L185.628 379.745L195.933 366.024L211.487 374.751Z" fill="#0D0A08"/>
<path d="M210.105 309.381V341.496L192.268 332.737L210.105 309.381Z" fill="#8A5630"/>
<path d="M210.105 309.381L192.268 332.736L195.933 303.785L210.105 309.381Z" fill="#3D2917"/>
<path d="M210.105 341.496L195.933 366.024L192.268 332.737L210.105 341.496Z" fill="#5B3F23"/>
<path d="M166.545 650.836L208.167 703.321L140.533 716.97L166.545 650.836Z" fill="#6A471F"/>
<path d="M206.873 419.423L185.628 462.313L178.771 432.903L206.873 419.423Z" fill="#4C2D1F"/>
<path d="M206.873 419.423L178.771 432.904L185.628 407.669L206.873 419.423Z" fill="#2C1F10"/>
<path d="M204.253 475.632L191.014 493.304L150.782 477.479L204.253 475.632Z" fill="#41241A"/>
<path d="M204.253 475.632L150.782 477.479L185.628 462.313L204.253 475.632Z" fill="#45281D"/>
<path d="M185.628 379.745L197.099 392.976L178.771 394.887L185.628 379.745Z" fill="#3E2612"/>
<path d="M197.099 392.976L185.628 407.669L178.771 394.887L197.099 392.976Z" fill="#2D1C0F"/>
<path d="M180.845 257.844L196.97 281.746L183.289 278.59L180.845 257.844Z" fill="#352612"/>
<path d="M196.97 281.746L195.933 303.785L178.771 294.431L196.97 281.746Z" fill="#2F2010"/>
<path d="M196.97 281.746L178.771 294.431L183.289 278.59L196.97 281.746Z" fill="#2A1D0F"/>
<path d="M195.933 303.785L192.268 332.736L164.536 322.516L195.933 303.785Z" fill="#382515"/>
<path d="M192.268 332.737L195.933 366.024L174.728 354.639L192.268 332.737Z" fill="#5B3F23"/>
<path d="M195.933 366.024L185.628 379.745L174.728 354.639L195.933 366.024Z" fill="#694627"/>
<path d="M195.933 303.785L164.536 322.516L178.772 294.431L195.933 303.785Z" fill="#302112"/>
<path d="M192.268 332.737L174.728 354.639L164.536 322.516L192.268 332.737Z" fill="#3F2B19"/>
<path d="M191.014 493.304L178.82 533.897L150.782 477.479L191.014 493.304Z" fill="#624223"/>
<path d="M178.82 533.897L191.014 582.648L140.533 560.681L178.82 533.897Z" fill="#4E371C"/>
<path d="M191.014 582.648L180.789 631.399L138.299 607.056L191.014 582.648Z" fill="#352813"/>
<path d="M191.014 582.648L138.299 607.055L140.533 560.681L191.014 582.648Z" fill="#473015"/>
<path d="M166.658 120.255L185.628 180.607L116.129 189.11L166.658 120.255Z" fill="#603D1E"/>
<path d="M185.628 180.607L179.873 232.963L147.744 227.11L185.628 180.607Z" fill="#513822"/>
<path d="M185.628 180.607L147.743 227.11L116.129 189.11L185.628 180.607Z" fill="#48331E"/>
<path d="M174.728 354.639L185.628 379.745L168.273 376.228L174.728 354.639Z" fill="#5E3F24"/>
<path d="M185.628 379.745L178.771 394.887L168.273 376.228L185.628 379.745Z" fill="#52321B"/>
<path d="M178.771 394.887L185.628 407.669L154.745 431.322L178.771 394.887Z" fill="#392617"/>
<path d="M185.628 407.669L178.771 432.904L154.745 431.322L185.628 407.669Z" fill="#291F10"/>
<path d="M178.771 432.904L185.628 462.313L150.782 451.707L178.771 432.904Z" fill="#462B19"/>
<path d="M185.628 462.313L150.782 477.479V451.707L185.628 462.313Z" fill="#3B2514"/>
<path d="M180.845 257.844L183.289 278.59L164.536 271.943L180.845 257.844Z" fill="#342512"/>
<path d="M183.289 278.59L178.771 294.431L166.658 281.746L183.289 278.59Z" fill="#2B1C10"/>
<path d="M183.289 278.59L166.658 281.746L164.536 271.942L183.289 278.59Z" fill="#25190E"/>
<path d="M179.873 232.963L180.845 257.844L156.915 253.693L179.873 232.963Z" fill="#201A0F"/>
<path d="M180.845 257.844L164.536 271.943L156.915 253.693L180.845 257.844Z" fill="#382712"/>
<path d="M180.789 631.399L166.545 650.837L138.299 607.056L180.789 631.399Z" fill="#6A451B"/>
<path d="M179.873 232.963L156.915 253.693L147.744 227.11L179.873 232.963Z" fill="#1A160B"/>
<path d="M150.782 477.479L178.82 533.897L140.533 560.681L150.782 477.479Z" fill="#66441F"/>
<path d="M166.658 281.746L178.771 294.431L142.993 301.785L166.658 281.746Z" fill="#271E12"/>
<path d="M178.771 294.431L164.536 322.516L142.993 301.785L178.771 294.431Z" fill="#2B1E12"/>
<path d="M168.273 376.228L178.771 394.887L137.39 383.872L168.273 376.228Z" fill="#332112"/>
<path d="M178.771 394.887L154.745 431.322L137.39 383.872L178.771 394.887Z" fill="#3D2917"/>
<path d="M178.771 432.903L150.782 451.707L154.745 431.322L178.771 432.903Z" fill="#2F2112"/>
<path d="M164.536 322.516L174.728 354.639L137.39 348.361L164.536 322.516Z" fill="#3C2917"/>
<path d="M174.728 354.639L168.273 376.228L137.39 348.361L174.728 354.639Z" fill="#3E2A18"/>
<path d="M171.231 4.73694L147.744 64.2382L134.681 22.9863L171.231 4.73694Z" fill="#2C2212"/>
<path d="M168.273 376.228L137.39 383.872V348.361L168.273 376.228Z" fill="#3F2A18"/>
<path d="M147.744 64.2383L166.658 120.255L103.155 156.015L147.744 64.2383Z" fill="#0D0C0B"/>
<path d="M166.658 120.255L116.129 189.11L103.155 156.015L166.658 120.255Z" fill="#382917"/>
<path d="M164.536 271.942L166.658 281.746H154.825L164.536 271.942Z" fill="#1F170D"/>
<path d="M166.658 281.746L142.993 301.785L154.825 281.746H166.658Z" fill="#322D17"/>
<path d="M138.299 607.056L166.545 650.837L110.044 607.056H138.299Z" fill="#5D3E1B"/>
<path d="M166.545 650.836L140.533 716.97L114.521 655.188L166.545 650.836Z" fill="#5A3F1B"/>
<path d="M166.545 650.837L114.522 655.188L110.044 607.056L166.545 650.837Z" fill="#5D3F1C"/>
<path d="M156.915 253.693L164.536 271.943L151.787 269.799L156.915 253.693Z" fill="#362612"/>
<path d="M164.536 271.942L154.825 281.746L151.787 269.799L164.536 271.942Z" fill="#241C11"/>
<path d="M164.536 322.516L137.39 348.36L114.521 315.362L164.536 322.516Z" fill="#402D1A"/>
<path d="M164.536 322.516L114.521 315.362L142.993 301.785L164.536 322.516Z" fill="#2E2010"/>
<path d="M147.744 227.11L156.915 253.693L126.386 251.742L147.744 227.11Z" fill="#14120E"/>
<path d="M156.915 253.693L151.787 269.799L126.386 251.742L156.915 253.693Z" fill="#3B2A14"/>
<path d="M151.787 269.799L154.825 281.746L137.39 283.191L151.787 269.799Z" fill="#0F0C09"/>
<path d="M154.825 281.746L142.993 301.785L137.39 283.191L154.825 281.746Z" fill="#191611"/>
<path d="M137.39 383.872L154.745 431.322L90.2136 425.525L137.39 383.872Z" fill="#4D341E"/>
<path d="M154.745 431.322L150.782 451.707L130.702 463.902L154.745 431.322Z" fill="#3B2A14"/>
<path d="M154.745 431.322L130.702 463.903L90.2136 425.525L154.745 431.322Z" fill="#53391F"/>
<path d="M151.787 269.799L137.39 283.191L127.608 274.207L151.787 269.799Z" fill="#12110E"/>
<path d="M151.787 269.799L127.608 274.207L126.386 251.742L151.787 269.799Z" fill="#3E2D18"/>
<path d="M150.782 451.707V477.479L130.702 463.902L150.782 451.707Z" fill="#4F351B"/>
<path d="M150.782 477.479L140.533 560.681L103.236 482.345L150.782 477.479Z" fill="#644320"/>
<path d="M150.782 477.479L103.236 482.345L130.702 463.903L150.782 477.479Z" fill="#58391C"/>
<path d="M134.682 22.9863L147.744 64.2381L90.688 39.2124L134.682 22.9863Z" fill="#1D180D"/>
<path d="M147.743 64.2383L103.155 156.015L101.298 85.0248L147.743 64.2383Z" fill="#080907"/>
<path d="M116.129 189.11L147.744 227.11L112.279 229.55L116.129 189.11Z" fill="#362819"/>
<path d="M147.744 227.11L126.386 251.742L112.279 229.551L147.744 227.11Z" fill="#10100D"/>
<path d="M147.744 64.2384L101.299 85.0249L90.688 39.2128L147.744 64.2384Z" fill="#281E10"/>
<path d="M137.39 283.191L142.993 301.785L120.775 289.068L137.39 283.191Z" fill="#362F21"/>
<path d="M142.993 301.786L114.521 315.362L101.475 299.746L142.993 301.786Z" fill="#2D1F10"/>
<path d="M142.993 301.785L101.475 299.746L120.775 289.068L142.993 301.785Z" fill="#4A4328"/>
<path d="M103.236 482.345L140.533 560.681L100.286 573.696L103.236 482.345Z" fill="#60401D"/>
<path d="M140.533 560.681L138.299 607.055L100.286 573.696L140.533 560.681Z" fill="#73502B"/>
<path d="M114.521 655.188L140.533 716.969L74.4504 693.589L114.521 655.188Z" fill="#4C3217"/>
<path d="M140.533 716.97L74.4504 740.912V693.59L140.533 716.97Z" fill="#4B3418"/>
<path d="M138.299 607.055H110.044L100.286 573.696L138.299 607.055Z" fill="#593D1E"/>
<path d="M137.39 348.361V383.872L87.1753 376.228L137.39 348.361Z" fill="#422D1A"/>
<path d="M114.521 315.362L137.39 348.36L77.6738 327.774L114.521 315.362Z" fill="#3B2C18"/>
<path d="M137.39 283.191L120.775 289.068L127.608 274.207L137.39 283.191Z" fill="#110F0C"/>
<path d="M137.39 348.36L87.1751 376.228L77.6738 327.775L137.39 348.36Z" fill="#4A3621"/>
<path d="M137.39 383.872L90.2138 425.525L87.1753 376.228L137.39 383.872Z" fill="#4E351F"/>
<path d="M130.702 463.903L103.236 482.345L90.2136 425.525L130.702 463.903Z" fill="#5C3C1F"/>
<path d="M126.386 251.742L127.608 274.207L104.65 260.325L126.386 251.742Z" fill="#4A3621"/>
<path d="M127.608 274.207L120.775 289.068L107.584 283.191L127.608 274.207Z" fill="#16130C"/>
<path d="M127.608 274.207L107.584 283.191L104.65 260.325L127.608 274.207Z" fill="#473419"/>
<path d="M112.279 229.551L126.386 251.742L104.65 260.325L112.279 229.551Z" fill="#12110E"/>
<path d="M120.775 289.068L101.475 299.746L107.584 283.191L120.775 289.068Z" fill="#15120B"/>
<path d="M103.155 156.015L116.129 189.11L76.5486 180.607L103.155 156.015Z" fill="#322615"/>
<path d="M116.129 189.11L112.279 229.55L65.1021 216.423L116.129 189.11Z" fill="#382B17"/>
<path d="M116.129 189.11L65.1021 216.424L76.5486 180.607L116.129 189.11Z" fill="#362C16"/>
<path d="M101.475 299.746L114.521 315.362L77.6738 327.775L101.475 299.746Z" fill="#382917"/>
<path d="M110.044 607.056L114.521 655.188L74.4504 630.042L110.044 607.056Z" fill="#493216"/>
<path d="M114.521 655.188L74.4504 693.589V655.734L114.521 655.188Z" fill="#413016"/>
<path d="M114.521 655.188L74.4504 655.734V630.042L114.521 655.188Z" fill="#3F2D16"/>
<path d="M112.279 229.551L104.651 260.325L87.1753 245.648L112.279 229.551Z" fill="#1B170E"/>
<path d="M112.279 229.551L87.1752 245.648L65.1021 216.424L112.279 229.551Z" fill="#40321F"/>
<path d="M100.285 573.696L110.044 607.055L70.3831 577.317L100.285 573.696Z" fill="#453017"/>
<path d="M110.044 607.056L74.4504 630.042L70.3831 577.317L110.044 607.056Z" fill="#412F17"/>
<path d="M104.65 260.325L107.584 283.191L91.2185 271.75L104.65 260.325Z" fill="#4D371E"/>
<path d="M107.584 283.191L101.475 299.746L91.2185 271.75L107.584 283.191Z" fill="#342411"/>
<path d="M104.651 260.325L91.2186 271.75L87.1753 245.648L104.651 260.325Z" fill="#312214"/>
<path d="M90.2137 425.525L103.236 482.345L52.1123 476.588L90.2137 425.525Z" fill="#583B1D"/>
<path d="M103.236 482.345L100.285 573.696L70.3831 533.375L103.236 482.345Z" fill="#61431F"/>
<path d="M103.236 482.345L70.3832 533.375L57.53 502.28L103.236 482.345Z" fill="#604023"/>
<path d="M103.236 482.345L57.5301 502.28L52.1123 476.588L103.236 482.345Z" fill="#563C20"/>
<path d="M101.298 85.025L103.155 156.015L64.0811 105.514L101.298 85.025Z" fill="#090A08"/>
<path d="M64.0812 105.514L103.155 156.015L47.1606 148.396L64.0812 105.514Z" fill="#0B0B09"/>
<path d="M103.155 156.015L76.5486 180.608L47.1606 148.396L103.155 156.015Z" fill="#0A0907"/>
<path d="M91.2185 271.75L101.475 299.746L74.8606 298.092L91.2185 271.75Z" fill="#4A3519"/>
<path d="M101.475 299.746L77.674 327.775L74.8606 298.092L101.475 299.746Z" fill="#47321B"/>
<path d="M90.6878 39.2128L101.298 85.0249L64.0811 105.514L90.6878 39.2128Z" fill="#211B0F"/>
<path d="M70.3831 533.375L100.285 573.696L70.3831 577.317V533.375Z" fill="#3F2E18"/>
<path d="M87.1751 245.648L91.2184 271.75L71.0745 266.17L87.1751 245.648Z" fill="#2A2211"/>
<path d="M91.2185 271.75L74.8606 298.092L50.9307 290.77L91.2185 271.75Z" fill="#453219"/>
<path d="M91.2185 271.75L50.9307 290.77L71.0746 266.17L91.2185 271.75Z" fill="#3F2E18"/>
<path d="M90.6878 39.2128L64.0811 105.514L36.542 64.9048L90.6878 39.2128Z" fill="#17140B"/>
<path d="M87.1752 376.228L90.2137 425.525L39.894 413.827L87.1752 376.228Z" fill="#4A3519"/>
<path d="M90.2137 425.525L52.1122 476.588L49.9258 455.77L90.2137 425.525Z" fill="#523C23"/>
<path d="M90.2136 425.525L49.9258 455.77L43.3987 432.703L90.2136 425.525Z" fill="#4B361A"/>
<path d="M90.2137 425.525L43.3987 432.703L39.894 413.827L90.2137 425.525Z" fill="#503B20"/>
<path d="M65.1021 216.424L87.1752 245.648L38.3828 236.335L65.1021 216.424Z" fill="#39301A"/>
<path d="M87.1752 245.648L71.0745 266.17L38.3828 236.335L87.1752 245.648Z" fill="#39301A"/>
<path d="M77.674 327.775L87.1752 376.228L39.894 351.612L77.674 327.775Z" fill="#3F321E"/>
<path d="M87.1751 376.228L39.8939 413.827L38.0291 387.027L87.1751 376.228Z" fill="#48331C"/>
<path d="M87.1751 376.228L38.0291 387.027L39.8939 351.612L87.1751 376.228Z" fill="#42301B"/>
<path d="M74.8606 298.092L77.674 327.775L45.0708 320.846L74.8606 298.092Z" fill="#47351D"/>
<path d="M77.674 327.775L39.894 351.612L45.0707 320.846L77.674 327.775Z" fill="#40311C"/>
<path d="M47.1606 148.396L76.5486 180.608L47.1928 196.513L47.1606 148.396Z" fill="#0C0C0A"/>
<path d="M76.5484 180.607L65.1019 216.424L47.1926 196.512L76.5484 180.607Z" fill="#1D1B10"/>
<path d="M74.8607 298.092L45.0708 320.846L50.9307 290.77L74.8607 298.092Z" fill="#45351F"/>
<path d="M71.0744 266.17L50.9305 290.77L34.1787 274.207L71.0744 266.17Z" fill="#423924"/>
<path d="M71.0744 266.17L34.1787 274.207L38.3827 236.335L71.0744 266.17Z" fill="#3D341E"/>
<path d="M47.1928 196.512L65.1021 216.424L38.3828 236.335L47.1928 196.512Z" fill="#19160E"/>
<path d="M36.5421 64.9047L64.0812 105.514L14.887 103.435L36.5421 64.9047Z" fill="#262311"/>
<path d="M64.0812 105.514L47.1607 148.396L14.887 103.435L64.0812 105.514Z" fill="#171611"/>
<path d="M49.9257 455.769L52.1121 476.588L38.0291 469.514L49.9257 455.769Z" fill="#4D361A"/>
<path d="M52.1121 476.588L41.9598 484.023L38.0291 469.515L52.1121 476.588Z" fill="#4F351B"/>
<path d="M50.9305 290.77L45.0706 320.846L34.1787 309.381L50.9305 290.77Z" fill="#332C1A"/>
<path d="M50.9305 290.77L34.1787 309.381V274.207L50.9305 290.77Z" fill="#2A2716"/>
<path d="M43.3989 432.703L49.926 455.769L36.8638 453.907L43.3989 432.703Z" fill="#402C17"/>
<path d="M49.926 455.769L38.0293 469.515L36.8638 453.907L49.926 455.769Z" fill="#281C0F"/>
<path d="M47.1606 148.396L47.1927 196.513L0 153.454L47.1606 148.396Z" fill="#12110E"/>
<path d="M47.1927 196.512L38.3828 236.335L0 201.458L47.1927 196.512Z" fill="#11120F"/>
<path d="M47.1927 196.512L0 201.458V153.454L47.1927 196.512Z" fill="#10110D"/>
<path d="M14.8869 103.435L47.1606 148.396L0 153.454L14.8869 103.435Z" fill="#242112"/>
<path d="M34.1787 309.381L45.0705 320.846L29.7737 333.274L34.1787 309.381Z" fill="#2A2716"/>
<path d="M45.0705 320.846L39.8939 351.612L29.7737 333.274L45.0705 320.846Z" fill="#302C19"/>
<path d="M39.8941 413.827L43.3988 432.703L9.7666 427.267L39.8941 413.827Z" fill="#2A1A0F"/>
<path d="M43.3988 432.703L36.8636 453.907L16.9207 450.23L43.3988 432.703Z" fill="#402C18"/>
<path d="M43.3988 432.703L16.9207 450.23L9.7666 427.267L43.3988 432.703Z" fill="#45311F"/>
<path d="M38.0291 469.515L41.9598 484.023L26.3977 476.588L38.0291 469.515Z" fill="#4F351B"/>
<path d="M29.7737 333.274L39.8939 351.612L13.3274 337.971L29.7737 333.274Z" fill="#312012"/>
<path d="M39.8941 351.612L38.0292 387.027L29.8623 364.659L39.8941 351.612Z" fill="#432F1B"/>
<path d="M39.8939 351.612L29.8621 364.659L13.3274 337.971L39.8939 351.612Z" fill="#442E1A"/>
<path d="M38.0292 387.027L39.8941 413.827L15.5623 390.736L38.0292 387.027Z" fill="#402916"/>
<path d="M39.8941 413.827L9.7666 427.267L15.5622 390.736L39.8941 413.827Z" fill="#412A17"/>
<path d="M38.3828 236.335L34.1788 274.207L11.4385 253.404L38.3828 236.335Z" fill="#0F110D"/>
<path d="M38.3828 236.335L11.4385 253.404L0 201.458L38.3828 236.335Z" fill="#0D0C0B"/>
<path d="M29.8624 364.659L38.0292 387.027L15.5623 390.736L29.8624 364.659Z" fill="#4A3420"/>
<path d="M36.8636 453.907L38.0292 469.514L16.9207 450.229L36.8636 453.907Z" fill="#3E371E"/>
<path d="M38.0292 469.514L26.3978 476.588L16.9207 450.229L38.0292 469.514Z" fill="#474128"/>
<path d="M34.1788 274.207V309.381L18.9463 300.156L34.1788 274.207Z" fill="#15160F"/>
<path d="M34.1788 274.207L18.9462 300.156L11.4385 253.404L34.1788 274.207Z" fill="#12130F"/>
<path d="M34.1788 309.381L29.7739 333.274L18.9463 300.156L34.1788 309.381Z" fill="#151711"/>
<path d="M13.3275 337.971L29.8623 364.659L10.8276 355.586L13.3275 337.971Z" fill="#442B19"/>
<path d="M29.8623 364.659L15.5622 390.737L10.8276 355.586L29.8623 364.659Z" fill="#402714"/>
<path d="M311.885 279.819L324.867 301.785L308.919 297.811L311.885 279.819Z" fill="#483D2A"/>
<path d="M324.867 301.785L311.885 328.216L308.919 297.811L324.867 301.785Z" fill="#DDAD70"/>
</svg>
