<svg width="162" height="65" viewBox="0 0 162 65" fill="none" xmlns="http://www.w3.org/2000/svg">
<path d="M15.4688 0C15.7227 0.15625 15.957 0.234375 16.1719 0.234375H17.1094C17.2852 0.234375 17.4414 0.195312 17.5781 0.117188C17.5781 0.195312 18.0078 0.234375 18.8672 0.234375V0.351562H18.6328V0.46875C19.3359 0.46875 19.6875 0.507812 19.6875 0.585938L19.9219 0.46875H20.3906C20.7227 0.46875 21.1914 0.625 21.7969 0.9375C21.7969 1.46484 20.1953 1.81641 16.9922 1.99219C12.8516 2.61719 10.7812 3.00781 10.7812 3.16406C8.94531 6.89453 7.96875 8.96484 7.85156 9.375C8.84766 9.14062 10.1758 8.94531 11.8359 8.78906C11.8359 8.86719 11.875 8.90625 11.9531 8.90625L12.0703 8.67188L12.6562 8.78906H14.6484C15.8203 8.80859 16.4062 8.88672 16.4062 9.02344L16.6406 8.90625C17.8516 9.41406 18.4766 9.76562 18.5156 9.96094V10.1953C18.418 10.5078 18.0664 10.6641 17.4609 10.6641H16.7578C16.5234 10.6641 16.4062 10.625 16.4062 10.5469L15.8203 10.6641H14.8828C13.9062 10.6641 12.9297 10.7812 11.9531 11.0156L11.7188 10.8984C8.96484 11.6797 7.36328 12.0703 6.91406 12.0703H6.32812C4.375 16.3867 3.39844 19.3164 3.39844 20.8594V21.6797L3.51562 23.0859L2.92969 23.4375C2.71484 23.3984 2.36328 22.8516 1.875 21.7969L1.17188 21.5625V19.9219C1.17188 19.4727 1.52344 18.0664 2.22656 15.7031C2.55859 15.2148 2.91016 14.4727 3.28125 13.4766C3.59375 12.5781 3.98438 11.7578 4.45312 11.0156C4.60938 11.0938 4.72656 11.1328 4.80469 11.1328L4.92188 10.8984V10.6641L4.6875 10.7812H4.57031C4.92188 9.80469 5.625 8.32031 6.67969 6.32812C7.61719 4.47266 8.08594 3.30078 8.08594 2.8125L7.61719 2.10938V1.875C7.61719 1.11328 8.4375 0.644531 10.0781 0.46875C10.1562 0.46875 10.1953 0.507812 10.1953 0.585938C12.7148 0.351562 14.4727 0.15625 15.4688 0ZM5.85938 9.375H5.97656C6.13281 9.375 6.21094 9.29688 6.21094 9.14062V9.02344C6.09375 9.02344 5.97656 9.14062 5.85938 9.375ZM5.39062 9.49219C5.46875 9.64844 5.50781 9.76562 5.50781 9.84375H5.74219C5.89844 9.84375 5.97656 9.76562 5.97656 9.60938V9.49219L5.74219 9.60938H5.625V9.25781C5.46875 9.27734 5.39062 9.35547 5.39062 9.49219ZM3.51562 13.4766L3.63281 14.1797C3.75 14.1797 3.86719 14.0625 3.98438 13.8281C3.98438 13.7109 3.86719 13.5938 3.63281 13.4766H3.51562ZM2.57812 15.5859V15.8203H2.69531V15.5859H2.57812ZM1.52344 20.625V20.8594H1.64062V20.625H1.52344Z" fill="#0D0D0A"/>
<path d="M22.9727 10.6348H23.9102C24.9062 10.6348 25.5312 11.3965 25.7852 12.9199C25.7852 14.7363 24.6914 16.3086 22.5039 17.6367C21.0195 18.9453 19.6914 19.5996 18.5195 19.5996C18.0117 19.4629 17.6602 19.3945 17.4648 19.3945C17.4648 19.4727 17.4258 19.5117 17.3477 19.5117C17.5234 20.8203 17.9922 21.4746 18.7539 21.4746H18.9883C19.6719 21.4746 21.4297 20.9961 24.2617 20.0391C24.6523 19.7266 25.1211 19.4727 25.668 19.2773V19.5117C25.7852 19.5117 25.9023 19.3945 26.0195 19.1602C25.9414 19.1602 25.9023 19.1309 25.9023 19.0723C26.1562 18.8965 26.5078 18.7793 26.957 18.7207C26.9766 18.877 27.0547 18.9551 27.1914 18.9551V18.6328H27.3086L27.543 18.7207C27.6211 18.584 27.6602 18.4766 27.6602 18.3984H27.7773V18.7207L27.543 19.0723C27.6211 19.0723 27.6602 19.1016 27.6602 19.1602C27.0156 19.9805 26.3516 20.5273 25.668 20.8008C25.668 21.0938 24.5742 21.7578 22.3867 22.793C21.2344 23.2227 20.2578 23.4375 19.457 23.4375C17.4453 23.4375 16 22.2656 15.1211 19.9219V18.9551H15.2383V18.6328H15.0039V18.2812H15.1211L15.3555 18.3984L15.4727 17.6367H15.2383V17.4316H15.3555L15.5898 17.5195C15.8438 16.582 16.1562 16.1133 16.5273 16.1133L16.4102 15.8789C16.8008 14.9805 17.1914 14.4043 17.582 14.1504L17.4648 13.916V13.7988C17.8555 13.7988 18.1289 13.4766 18.2852 12.832C18.4609 12.832 18.8125 12.5391 19.3398 11.9531C20.8242 11.1523 22.0352 10.7129 22.9727 10.6348ZM18.2852 17.3145C18.8125 17.2363 20.1406 16.5039 22.2695 15.1172C23.4414 14.1211 24.0273 13.5742 24.0273 13.4766L23.9102 13.2715C24.0664 13.2715 24.1445 13.1934 24.1445 13.0371C23.9883 13.0371 23.9102 12.9297 23.9102 12.7148L24.0273 12.1582C23.8711 12.0996 23.7539 12.0703 23.6758 12.0703C22.3672 12.2852 20.9219 13.3789 19.3398 15.3516C18.7148 16.2305 18.3633 16.8848 18.2852 17.3145Z" fill="#0D0D0A"/>
<path d="M36.1895 9.96094C36.8535 9.90234 37.498 10.2148 38.123 10.8984L38.1523 11.25C38.1719 11.4648 37.7227 11.7578 36.8047 12.1289C33.4844 16.0547 31.5996 18.9453 31.1504 20.8008H31.2676L31.6484 21.0059L33.6406 19.0137L33.875 19.1016C33.875 19.043 34.168 18.7109 34.7539 18.1055L34.6367 17.9004C34.6367 17.7441 34.7051 17.6562 34.8418 17.6367L35.0762 17.7539C35.0566 17.3828 35.2812 17.168 35.75 17.1094V16.9922C35.5156 17.0117 35.3887 16.9434 35.3691 16.7871C35.4473 16.7871 35.6719 16.582 36.043 16.1719L36.3945 16.1426C37.5469 14.6582 38.2012 13.916 38.3574 13.916L38.9434 13.8574C39.6855 14.2676 40.1445 14.6387 40.3203 14.9707L40.3496 15.3223L38.9434 18.75C38.748 19.6094 38.6211 20.0391 38.5625 20.0391V20.1562C38.6211 21.0156 38.8066 21.4355 39.1191 21.416C39.1973 21.416 39.5781 21.1621 40.2617 20.6543H40.3789C40.3789 20.8105 40.418 20.8789 40.4961 20.8594C41.9609 19.7266 43.2988 18.5547 44.5098 17.3438C44.6855 17.6172 44.7832 17.959 44.8027 18.3691C44.2559 19.6973 43.0254 21.2598 41.1113 23.0566C40.5449 23.4082 40.0078 23.6035 39.5 23.6426C37.5859 23.1738 36.5996 22.4121 36.541 21.3574C36.4238 21.3574 36.2578 20.752 36.043 19.541C35.8281 19.1504 34.6758 20.3223 32.5859 23.0566C31.9219 23.4082 31.502 23.5938 31.3262 23.6133L30.9746 23.6426C30.1543 23.6816 29.3828 23.1348 28.6602 22.002L28.6016 21.2988C28.6016 21.123 28.6309 20.9668 28.6895 20.8301L28.5723 20.5957C29.002 19.0137 29.3828 18.2129 29.7148 18.1934L29.5684 17.959C29.8418 17.7246 30.0176 17.4023 30.0957 16.9922C30.4082 16.7969 31.2383 15.5371 32.5859 13.2129C33.9531 11.1035 35.1543 10.0195 36.1895 9.96094Z" fill="#0D0D0A"/>
<path d="M53.7422 2.10938C54.4844 2.10938 54.9531 2.65625 55.1484 3.75C55.1484 3.90625 54.5625 5.3125 53.3906 7.96875C53.4688 7.96875 53.5078 8.00781 53.5078 8.08594C55.5781 7.89062 57.2969 7.75391 58.6641 7.67578V7.79297L58.8984 7.67578H59.7188C60.1875 7.67578 60.4219 7.83203 60.4219 8.14453H60.7734C61.4766 8.14453 61.8281 8.41797 61.8281 8.96484C61.418 9.27734 60.6367 9.47266 59.4844 9.55078V9.43359C56.9648 9.74609 54.582 10.0781 52.3359 10.4297C52.3359 10.6445 51.75 12.5977 50.5781 16.2891C49.7188 19.0039 49.2891 21.2305 49.2891 22.9688C49.0547 23.2812 48.8984 23.4375 48.8203 23.4375C48.6641 23.4375 48.5859 23.3203 48.5859 23.0859H48.4688V23.3203H48.2344L48.1172 22.1484V21.6797C47.9609 21.4844 47.8828 21.3281 47.8828 21.2109H47.7656C47.7656 21.3672 47.7266 21.4453 47.6484 21.4453L47.7656 21.6797V22.0312C47.5312 21.9727 47.4141 21.6602 47.4141 21.0938V20.8594L47.5312 20.2734C47.375 20.2734 47.2969 20.1953 47.2969 20.0391C47.2969 19.5117 47.5312 18.7695 48 17.8125C48.0781 17.4609 48.1172 17.1484 48.1172 16.875H48V16.6406C48.2344 16.6406 48.3516 16.5625 48.3516 16.4062C48.1953 16.4062 48.1172 16.3281 48.1172 16.1719C48.2734 16.1719 48.3516 16.0938 48.3516 15.9375L48.2344 15.7031C48.9766 12.8906 49.5234 11.4844 49.875 11.4844C49.7969 11.3281 49.7578 11.2109 49.7578 11.1328L47.1797 11.7188C45.9297 11.7188 45.3047 11.1328 45.3047 9.96094C45.4219 9.62891 45.6172 9.39453 45.8906 9.25781H46.7109C49.4453 9.08203 50.8125 8.65234 50.8125 7.96875C51.4375 6.5625 52.1016 4.6875 52.8047 2.34375C53.3516 2.1875 53.6641 2.10938 53.7422 2.10938Z" fill="#0D0D0A"/>
<path d="M60.8945 11.6309L61.3633 11.5723C62.1055 11.7871 62.5059 12.1875 62.5645 12.7734L62.5938 13.0957C61.0703 16.084 60.2207 18.3887 60.0449 20.0098C60.2012 20.9082 60.5625 21.2109 61.1289 20.918C61.7148 20.625 62.0664 20.3613 62.1836 20.127C62.3203 19.8145 62.5645 19.4727 62.916 19.1016H63.0332L63.502 18.1055C63.6191 17.7539 63.8633 17.4121 64.2344 17.0801C64.3125 17.002 64.3418 16.9238 64.3223 16.8457C64.4395 16.4746 64.5762 16.2695 64.7324 16.2305L64.8789 16.0547C64.8984 15.6836 65.2598 15.3125 65.9629 14.9414C66.5488 14.5508 67.2422 14.707 68.043 15.4102C68.3555 15.957 68.502 16.543 68.4824 17.168C68.4824 17.793 68.5508 18.7891 68.6875 20.1562C68.8828 20.7031 69.0586 20.9668 69.2148 20.9473C69.8789 21.3379 70.9141 20.7812 72.3203 19.2773H72.4375L72.4668 19.5117L72.8184 19.4824C73.6973 18.5449 74.2734 18.0566 74.5469 18.0176C74.5664 18.0957 74.6152 18.1348 74.6934 18.1348C74.3223 19.4043 73.4922 20.5469 72.2031 21.5625C71.6367 22.0312 71.0117 22.5 70.3281 22.9688C69.0391 23.0859 68.1309 22.8613 67.6035 22.2949C67.2129 22.334 66.8125 21.5039 66.4023 19.8047C66.3828 18.9453 66.3438 18.2031 66.2852 17.5781L63.502 21.2988C62.7988 22.3926 62.0664 22.9785 61.3047 23.0566C59.8984 23.1934 58.8145 22.5977 58.0527 21.2695C57.7793 20.0781 57.6133 19.1504 57.5547 18.4863C57.8086 16.9629 58.082 16.1816 58.375 16.1426L58.1992 15.5859C59.4492 13.5938 60.2012 12.373 60.4551 11.9238C60.5918 11.9043 60.7383 11.8066 60.8945 11.6309Z" fill="#0D0D0A"/>
<path d="M77.5391 13.8867C78.4961 14.0625 79.043 14.5703 79.1797 15.4102L79.209 15.6445C79.248 15.957 79.0332 16.6602 78.5645 17.7539V17.8711L78.6816 17.8418L81.377 15.0879C81.6113 15.0684 82.3926 14.4434 83.7207 13.2129C83.877 13.2715 83.9941 13.3008 84.0723 13.3008C84.0723 13.1445 84.1406 13.0566 84.2773 13.0371L84.8633 12.9492C85.8984 13.125 86.4648 13.5156 86.5625 14.1211C86.0938 14.7461 85.7422 15.0684 85.5078 15.0879C85.2344 14.9707 84.9902 14.9316 84.7754 14.9707C84.0527 15.1074 82.0996 17.4023 78.916 21.8555C78.3301 22.9883 77.6465 23.7207 76.8652 24.0527L76.6309 24.082C76.123 24.1406 75.5078 23.6719 74.7852 22.6758C74.6289 21.6992 75.1367 19.2578 76.3086 15.3516C76.2109 14.6289 76.6211 14.1406 77.5391 13.8867Z" fill="#0D0D0A"/>
<path d="M92.2793 8.32031L92.4844 7.91016C92.7969 7.32422 93.4609 7.06055 94.4766 7.11914C94.9453 7.60742 95.0625 8.06641 94.8281 8.49609C94.5352 9.04297 93.8711 9.30664 92.8359 9.28711C92.4453 9.0918 92.2598 8.76953 92.2793 8.32031ZM90.9609 10.8984C91.4883 10.9766 92.0352 11.3672 92.6016 12.0703C92.6016 12.3828 91.8203 14.2578 90.2578 17.6953C89.9453 18.4766 89.7891 19.2578 89.7891 20.0391V20.9766H89.9062C90.3555 20.9766 91.0977 20.7422 92.1328 20.2734C92.2891 20.3516 92.4062 20.3906 92.4844 20.3906C92.4844 20.3125 93.2266 19.8438 94.7109 18.9844C94.7305 18.8281 94.8086 18.75 94.9453 18.75L95.1797 18.8672C95.3164 18.8672 95.5898 18.6719 96 18.2812H96.1172C96.4297 18.3984 96.5859 18.5156 96.5859 18.6328C96.5078 18.6328 96.1953 19.1016 95.6484 20.0391C92.9336 22.3047 90.9414 23.4375 89.6719 23.4375C88.832 23.2422 88.168 22.7734 87.6797 22.0312C87.4453 21.3867 87.25 20.6445 87.0938 19.8047C87.0938 18.3984 87.875 16.0156 89.4375 12.6562C89.8477 11.4844 90.3555 10.8984 90.9609 10.8984Z" fill="#0D0D0A"/>
<path d="M100.516 12.6562C101.258 12.6562 101.805 13.2031 102.156 14.2969C102.156 14.5508 101.688 15.6836 100.75 17.6953H100.867C102.645 16.4844 104.051 15.4297 105.086 14.5312H105.672C107.078 14.8047 107.781 15.3906 107.781 16.2891L107.664 16.875C107.664 18.5938 108.211 19.8047 109.305 20.5078H109.656C110.359 20.5078 111.336 20.1562 112.586 19.4531H112.703C112.703 19.5312 112.742 19.5703 112.82 19.5703C112.82 19.3555 113.094 19.1992 113.641 19.1016C113.68 18.8867 114.422 18.4961 115.867 17.9297V18.1641C115.867 19.2969 114.266 20.7422 111.062 22.5L109.891 22.6172C108.289 22.1484 107.117 21.3281 106.375 20.1562C105.984 19.6094 105.672 18.5938 105.438 17.1094H105.32C104.246 17.8711 102.098 19.7852 98.875 22.8516C98.875 23.1641 98.6797 23.3594 98.2891 23.4375C97.9375 23.4375 97.625 23.2031 97.3516 22.7344C97.0586 22.7344 96.8633 22.2266 96.7656 21.2109C97.3906 18.4961 98.1328 16.3086 98.9922 14.6484C99.1875 13.3203 99.6953 12.6562 100.516 12.6562Z" fill="#0D0D0A"/>
<path d="M123.693 12.0117C124.416 12.2852 125.09 12.8516 125.715 13.7109L126.301 13.6523L126.887 13.8574C127.043 13.5645 127.18 13.4277 127.297 13.4473C127.707 13.8965 127.902 14.1504 127.883 14.209L127.355 15.5566L126.945 18.7207C126.945 18.7988 126.906 18.8281 126.828 18.8086C126.809 18.8867 126.838 18.9258 126.916 18.9258L126.74 19.5117C126.154 21.8945 125.607 23.916 125.1 25.5762C124.65 26.3574 124.338 27.0703 124.162 27.7148C124.006 28.3789 123.332 29.6094 122.141 31.4062C120.969 33.2031 119.006 34.2871 116.252 34.6582C116.076 34.3457 116.174 34.1016 116.545 33.9258C116.916 33.75 117.385 33.5059 117.951 33.1934C118.459 32.8613 118.918 32.5 119.328 32.1094C119.758 31.7383 120.363 30.8496 121.145 29.4434L121.379 29.3555C121.398 29.2773 121.369 29.2383 121.291 29.2383C121.525 28.6914 121.721 28.4277 121.877 28.4473C121.818 28.2715 121.799 28.1445 121.818 28.0664L121.994 27.627L122.053 27.1582H122.17L122.199 26.9531L122.17 26.3379C122.307 26.3574 122.395 26.2891 122.434 26.1328L122.463 25.8984C122.775 25.6445 122.99 25.1074 123.107 24.2871C123.537 23.4473 123.771 22.8027 123.811 22.3535L124.016 21.2695L124.279 20.127C124.26 19.6973 124.27 19.3457 124.309 19.0723C124.387 19.0723 124.426 19.0332 124.426 18.9551L124.221 18.8086H124.104C124.064 19.0039 122.971 19.8047 120.822 21.2109C119.279 22.3438 117.883 22.832 116.633 22.6758C115.168 21.7383 114.484 20.8984 114.582 20.1562L114.67 19.5703C114.826 18.3984 115.578 17.1582 116.926 15.8496C118.371 14.3848 120.148 13.125 122.258 12.0703L123.693 12.0117ZM117.014 20.4785C118.85 20.166 119.836 19.8633 119.973 19.5703C120.012 19.4922 121.115 18.6523 123.283 17.0508C123.342 17.0508 123.371 17.0898 123.371 17.168C124.191 16.875 124.641 16.4648 124.719 15.9375C124.719 15.2148 124.533 14.834 124.162 14.7949C123.693 14.7363 123.479 14.5898 123.518 14.3555C122.033 14.5898 120.246 15.8496 118.156 18.1348C117.492 18.9746 117.111 19.7559 117.014 20.4785ZM122.58 17.9004H122.668C122.824 17.9199 122.912 17.8516 122.932 17.6953L122.961 17.6074C122.844 17.5879 122.717 17.6855 122.58 17.9004Z" fill="#0D0D0A"/>
<path d="M7.26562 38.1543H7.73438C8.4375 38.7793 8.78906 39.3262 8.78906 39.7949V40.1465C8.32031 41.9043 7.1875 45.2637 5.39062 50.2246C4.58984 52.8027 4.12109 54.0918 3.98438 54.0918H3.86719C3.86719 54.2676 3.90625 54.4238 3.98438 54.5605C3.04688 57.1777 2.5293 59.0723 2.43164 60.2441L2.66602 60.8008C4.59961 60.6836 6.74805 60.4102 9.11133 59.9805L12.1289 59.4238C12.832 59.3262 13.4473 59.2676 13.9746 59.248C14.4434 59.1113 14.7754 59.043 14.9707 59.043L16.1719 59.1602V59.3945C9.04297 62.1484 4.19922 63.584 1.64062 63.7012C0.546875 63.1348 0 62.4707 0 61.709C0.078125 60.9277 0.15625 60.5371 0.234375 60.5371L0.117188 60.3027V59.5996C0.644531 56.9629 1.15234 55.3613 1.64062 54.7949C1.64062 54.873 1.67969 54.9121 1.75781 54.9121L1.64062 55.1465C1.71875 55.3027 1.75781 55.4199 1.75781 55.498L1.99219 55.3809L1.875 55.1465L2.10938 54.3262V54.209H1.99219C1.99219 54.4434 1.91406 54.5605 1.75781 54.5605V53.9746L4.57031 45.5371C5.35156 43.4277 6.01562 41.123 6.5625 38.623C6.71875 38.623 6.95312 38.4668 7.26562 38.1543ZM4.10156 47.998V48.2324H4.21875V47.998H4.10156ZM3.28125 50.5762C3.28125 50.7129 3.20312 50.9082 3.04688 51.1621H3.28125L3.39844 50.6934V50.5762H3.28125ZM2.69531 52.0996V52.334H2.8125V52.0996H2.69531ZM1.05469 57.1387V57.2559C1.05469 57.373 1.17188 57.4902 1.40625 57.6074L1.52344 57.0215V56.9043C1.32812 57.0605 1.17188 57.1387 1.05469 57.1387Z" fill="#0D0D0A"/>
<path d="M22.9434 49.9609C23.6074 49.9023 24.252 50.2148 24.877 50.8984L24.9062 51.25C24.9258 51.4648 24.4766 51.7578 23.5586 52.1289C20.2383 56.0547 18.3535 58.9453 17.9043 60.8008H18.0215L18.4023 61.0059L20.3945 59.0137L20.6289 59.1016C20.6289 59.043 20.9219 58.7109 21.5078 58.1055L21.3906 57.9004C21.3906 57.7441 21.459 57.6562 21.5957 57.6367L21.8301 57.7539C21.8105 57.3828 22.0352 57.168 22.5039 57.1094V56.9922C22.2695 57.0117 22.1426 56.9434 22.123 56.7871C22.2012 56.7871 22.4258 56.582 22.7969 56.1719L23.1484 56.1426C24.3008 54.6582 24.9551 53.916 25.1113 53.916L25.6973 53.8574C26.4395 54.2676 26.8984 54.6387 27.0742 54.9707L27.1035 55.3223L25.6973 58.75C25.502 59.6094 25.375 60.0391 25.3164 60.0391V60.1562C25.375 61.0156 25.5605 61.4355 25.873 61.416C25.9512 61.416 26.332 61.1621 27.0156 60.6543H27.1328C27.1328 60.8105 27.1719 60.8789 27.25 60.8594C28.7148 59.7266 30.0527 58.5547 31.2637 57.3438C31.4395 57.6172 31.5371 57.959 31.5566 58.3691C31.0098 59.6973 29.7793 61.2598 27.8652 63.0566C27.2988 63.4082 26.7617 63.6035 26.2539 63.6426C24.3398 63.1738 23.3535 62.4121 23.2949 61.3574C23.1777 61.3574 23.0117 60.752 22.7969 59.541C22.582 59.1504 21.4297 60.3223 19.3398 63.0566C18.6758 63.4082 18.2559 63.5938 18.0801 63.6133L17.7285 63.6426C16.9082 63.6816 16.1367 63.1348 15.4141 62.002L15.3555 61.2988C15.3555 61.123 15.3848 60.9668 15.4434 60.8301L15.3262 60.5957C15.7559 59.0137 16.1367 58.2129 16.4688 58.1934L16.3223 57.959C16.5957 57.7246 16.7715 57.4023 16.8496 56.9922C17.1621 56.7969 17.9922 55.5371 19.3398 53.2129C20.707 51.1035 21.9082 50.0195 22.9434 49.9609Z" fill="#0D0D0A"/>
<path d="M41.668 38.7109C42.1172 38.9062 42.4395 39.0039 42.6348 39.0039C42.6152 38.8281 42.8789 38.6914 43.4258 38.5938C44.3242 38.5547 44.8711 39.1504 45.0664 40.3809C44.832 44.7754 44.6465 47.1387 44.5098 47.4707L44.6562 48.0566L44.7148 48.7305C44.7148 48.8086 44.6758 48.8574 44.5977 48.877L44.7148 49.082L44.7441 49.668C44.7637 49.9023 44.7344 50.0293 44.6562 50.0488L44.8027 50.6055L44.8906 52.0117C46.2969 50.5469 47.5469 49.0723 48.6406 47.5879C48.7969 47.5684 48.9824 47.3633 49.1973 46.9727C49.3535 46.9531 49.5 46.9043 49.6367 46.8262L49.5195 46.5918C49.5 46.4551 49.7246 46.3281 50.1934 46.2109L50.0762 45.9766C50.0566 45.8594 50.3105 45.5762 50.8379 45.127C50.8574 45.4199 50.9453 45.5664 51.1016 45.5664C51.082 45.3711 51.2578 45.0488 51.6289 44.5996H51.3945V44.3652C51.5508 44.3652 51.6191 44.2871 51.5996 44.1309C51.7559 44.1504 51.8438 44.2285 51.8633 44.3652L51.7461 44.5996L52.0977 44.5703C52.0781 44.2188 52.332 43.8184 52.8594 43.3691C53.0156 43.4277 53.1328 43.457 53.2109 43.457C53.2109 43.3984 53.3965 43.1934 53.7676 42.8418L53.7383 42.2559L53.9727 42.2266C53.9727 42.3828 54.0117 42.4609 54.0898 42.4609C54.2461 42.4609 54.5391 42.0898 54.9688 41.3477C55.0078 41.3477 55.1641 41.2988 55.4375 41.2012V41.3184C56.2969 40.8496 57.0098 40.3027 57.5762 39.6777L58.5137 39.6191C59.1582 39.9902 59.5 40.4883 59.5391 41.1133V41.2305C55.7109 50.7031 53.6113 56.4941 53.2402 58.6035C52.8691 60.2051 52.6348 61.6211 52.5371 62.8516L52.0977 63.1152C51.4141 62.8418 51.0137 62.7051 50.8965 62.7051L50.5156 62.3828L50.4863 61.9141C50.4082 60.332 50.8672 57.959 51.8633 54.7949H51.9805C52.1367 54.7754 52.2148 54.8828 52.2148 55.1172H52.4492C52.4492 54.9414 52.5566 54.6973 52.7715 54.3848L52.6543 54.1797C52.8496 53.7109 52.9473 53.3887 52.9473 53.2129H52.7129V53.4473L52.4785 53.4766L52.4492 52.8906C53.0547 51.543 54.3145 48.1836 56.2285 42.8125H56.1113C53.1426 45.5078 50.6426 48.3887 48.6113 51.4551C47.0488 53.5449 45.9551 54.9023 45.3301 55.5273L45.4473 55.7324C45.4863 56.2793 45.2715 56.5723 44.8027 56.6113C44.1387 55.9863 43.709 55.4199 43.5137 54.9121L43.3086 55.0586L43.4258 55.2637V55.3809L43.1914 55.4102L42.7227 53.2129C42.8008 53.0566 42.8301 52.8906 42.8105 52.7148V52.4805L42.6641 52.2754C42.8203 52.2559 42.8984 52.168 42.8984 52.0117C42.7422 52.0312 42.6543 51.9629 42.6348 51.8066V51.3379L42.7227 51.0742C42.5664 51.0938 42.4883 51.0254 42.4883 50.8691L42.3418 48.4082L42.4297 47.7051C42.4102 47.627 42.3613 47.5879 42.2832 47.5879L42.4004 43.4863H42.166C38.3965 51.7676 36.0234 57.4219 35.0469 60.4492C35.0078 61.25 34.9492 61.7188 34.8711 61.8555L35.0176 62.0898L34.9004 62.3242C35.0957 62.8516 35.2031 63.3203 35.2227 63.7305C35.2227 63.8281 35.1152 63.9453 34.9004 64.082L34.666 64.1113C33.8652 63.9746 33.4551 63.6426 33.4355 63.1152C33.5137 63.1152 33.543 63.0762 33.5234 62.998H33.4062C33.2695 63.0762 33.1621 63.125 33.084 63.1445C32.8301 62.7734 32.6836 62.2656 32.6445 61.6211C32.7227 59.3555 33.123 58.2031 33.8457 58.1641V57.9297L33.4941 57.959C34.3145 55.4395 35.1055 53.5938 35.8672 52.4219L35.9844 52.3926L35.8672 52.1875C35.9258 52.0312 35.9551 51.9043 35.9551 51.8066H36.0723C36.3262 51.9629 36.6094 52.0703 36.9219 52.1289V52.0117C36.7461 51.6992 36.6484 51.4258 36.6289 51.1914C36.707 51.1914 36.7461 51.1523 36.7461 51.0742L36.5117 51.1914L36.3945 51.2207C36.375 51.0254 37.2344 48.9746 38.9727 45.0684C39.9102 42.8223 40.5449 40.9082 40.877 39.3262C41.1113 39.0137 41.375 38.8086 41.668 38.7109ZM50.3105 45.9766V46.2109L50.5449 46.1816L50.5156 45.7129C50.3594 45.752 50.291 45.8398 50.3105 45.9766ZM54.6465 47.9395V48.1738H54.8809C54.8809 48.0176 54.8027 47.9395 54.6465 47.9395ZM37.3613 49.5215L37.2734 50.1074C37.4297 50.0879 37.498 50 37.4785 49.8438V49.4922L37.3613 49.5215ZM42.8398 49.1992L42.8984 49.7852H43.0156L42.957 49.1992H42.8398ZM36.9512 50.459V50.6934H37.0684V50.459H36.9512ZM42.957 50.957L43.0449 52.3633L43.3672 52.0996L43.2207 51.5137L43.1914 50.957H42.957ZM53.5332 51.3086C53.6504 51.2891 53.8066 51.3574 54.002 51.5137L54.3242 50.6641C54.168 50.6836 54.0801 50.5762 54.0605 50.3418H53.9434C53.8262 50.3418 53.6895 50.6641 53.5332 51.3086ZM53.416 51.4258L53.4453 51.6602H53.5625L53.5332 51.4258H53.416ZM43.0449 52.7148C43.1426 52.8516 43.1914 52.9688 43.1914 53.0664L43.3086 53.0371L43.2793 52.4512C43.123 52.4902 43.0449 52.5781 43.0449 52.7148ZM43.3379 53.5059V53.7402H43.4551V53.5059H43.3379ZM52.1855 54.1797H52.3027V54.4141H52.1855V54.1797ZM51.8926 55.7324L51.9219 55.9668H52.0391L52.0098 55.7324H51.8926Z" fill="#0D0D0A"/>
<path d="M65.6953 50.6348H66.6328C67.6289 50.6348 68.2539 51.3965 68.5078 52.9199C68.5078 54.7363 67.4141 56.3086 65.2266 57.6367C63.7422 58.9453 62.4141 59.5996 61.2422 59.5996C60.7344 59.4629 60.3828 59.3945 60.1875 59.3945C60.1875 59.4727 60.1484 59.5117 60.0703 59.5117C60.2461 60.8203 60.7148 61.4746 61.4766 61.4746H61.7109C62.3945 61.4746 64.1523 60.9961 66.9844 60.0391C67.375 59.7266 67.8438 59.4727 68.3906 59.2773V59.5117C68.5078 59.5117 68.625 59.3945 68.7422 59.1602C68.6641 59.1602 68.625 59.1309 68.625 59.0723C68.8789 58.8965 69.2305 58.7793 69.6797 58.7207C69.6992 58.877 69.7773 58.9551 69.9141 58.9551V58.6328H70.0312L70.2656 58.7207C70.3438 58.584 70.3828 58.4766 70.3828 58.3984H70.5V58.7207L70.2656 59.0723C70.3438 59.0723 70.3828 59.1016 70.3828 59.1602C69.7383 59.9805 69.0742 60.5273 68.3906 60.8008C68.3906 61.0938 67.2969 61.7578 65.1094 62.793C63.957 63.2227 62.9805 63.4375 62.1797 63.4375C60.168 63.4375 58.7227 62.2656 57.8438 59.9219V58.9551H57.9609V58.6328H57.7266V58.2812H57.8438L58.0781 58.3984L58.1953 57.6367H57.9609V57.4316H58.0781L58.3125 57.5195C58.5664 56.582 58.8789 56.1133 59.25 56.1133L59.1328 55.8789C59.5234 54.9805 59.9141 54.4043 60.3047 54.1504L60.1875 53.916V53.7988C60.5781 53.7988 60.8516 53.4766 61.0078 52.832C61.1836 52.832 61.5352 52.5391 62.0625 51.9531C63.5469 51.1523 64.7578 50.7129 65.6953 50.6348ZM61.0078 57.3145C61.5352 57.2363 62.8633 56.5039 64.9922 55.1172C66.1641 54.1211 66.75 53.5742 66.75 53.4766L66.6328 53.2715C66.7891 53.2715 66.8672 53.1934 66.8672 53.0371C66.7109 53.0371 66.6328 52.9297 66.6328 52.7148L66.75 52.1582C66.5938 52.0996 66.4766 52.0703 66.3984 52.0703C65.0898 52.2852 63.6445 53.3789 62.0625 55.3516C61.4375 56.2305 61.0859 56.8848 61.0078 57.3145Z" fill="#0D0D0A"/>
<path d="M78.0039 38.7109C78.375 38.7109 78.8438 39.1406 79.4102 40C79.4102 40.3711 78.5898 42.1289 76.9492 45.2734C75.0742 49.043 73.8242 53.6523 73.1992 59.1016L73.3164 59.3359C73.2383 59.7461 73.1992 59.9805 73.1992 60.0391C73.2773 60.7812 73.3555 61.2109 73.4336 61.3281C74.5859 61.3281 76.7734 60.3516 79.9961 58.3984L80.1133 58.6328V58.75C80.1133 59.4922 78.5117 60.9375 75.3086 63.0859C74.9375 63.3203 74.3516 63.4375 73.5508 63.4375H73.3164C71.832 62.7539 71.0898 61.8945 71.0898 60.8594C70.9531 60.8594 70.875 60.5859 70.8555 60.0391V58.2812C70.9141 57.8125 71.0312 57.5781 71.207 57.5781L71.0898 56.9922V56.4062C71.0898 56.1133 71.207 55.8789 71.4414 55.7031V55.3516H71.5586V55.1172H71.3242V54.8828C71.6367 54.8828 71.832 54.2969 71.9102 53.125L71.793 52.6562C72.125 52.1289 72.4766 51.0742 72.8477 49.4922C72.7695 49.3359 72.7305 49.2188 72.7305 49.1406C72.8281 49.1406 73.1016 48.7891 73.5508 48.0859V48.3203H73.668C73.668 48.2422 73.707 48.125 73.7852 47.9688V47.8516H73.668V48.0859H73.5508V47.6172C74.332 45.8398 74.8008 44.5508 74.957 43.75C75.4062 42.9297 76.0312 41.5625 76.832 39.6484C77.0859 39.0234 77.4766 38.7109 78.0039 38.7109Z" fill="#0D0D0A"/>
<path d="M87.5 51.7188H87.6172C90.0586 51.9922 91.3574 53.0664 91.5137 54.9414C91.5137 56.875 89.7949 59.0918 86.3574 61.5918C85.0293 62.8223 83.8184 63.4375 82.7246 63.4375C80.7715 62.7734 79.7949 61.416 79.7949 59.3652C79.7949 57.9199 80.2637 56.3281 81.2012 54.5898C81.6895 54.3359 82.002 54.209 82.1387 54.209C83.0762 54.3848 83.5449 54.873 83.5449 55.6738C82.6855 57.6855 82.2559 59.209 82.2559 60.2441C82.2559 60.5957 82.334 60.918 82.4902 61.2109C83.5645 61.0547 85.0879 60.1953 87.0605 58.6328C88.7793 56.9727 89.6387 55.8691 89.6387 55.3223C89.5605 55.3223 89.5215 55.2832 89.5215 55.2051L89.7559 55.0586C88.8965 54.0625 88.2617 53.5645 87.8516 53.5645C87.6953 53.4863 87.5781 53.4473 87.5 53.4473C87.3828 53.5645 86.8848 53.9453 86.0059 54.5898V54.4434C85.3613 54.2871 85.0391 54.1211 85.0391 53.9453L84.8047 54.0625H84.5703V53.9453C85.1562 53.1055 85.625 52.6074 85.9766 52.4512L85.8594 52.2168V51.9531H86.2109C86.9727 51.7969 87.4023 51.7188 87.5 51.7188ZM86.2402 54.4141H86.3574C86.5137 54.4141 86.2305 54.3262 85.5078 54.1504H85.3906C85.2344 54.1699 85.5176 54.2578 86.2402 54.4141Z" fill="#0D0D0A"/>
<path d="M115.516 38.4766H116.102C116.648 38.4766 116.922 38.6719 116.922 39.0625L118.328 38.9453H118.797C120.691 38.9453 121.941 39.7656 122.547 41.4062C122.703 42.0312 122.781 42.4219 122.781 42.5781V42.6953C122.781 42.8711 122.742 43.0273 122.664 43.1641C122.664 43.2422 122.703 43.2812 122.781 43.2812C122.566 45.4297 121.434 47.6562 119.383 49.9609V50.0781L119.617 49.9609C122.742 50.2734 124.305 51.3672 124.305 53.2422C124.305 56.3477 120.633 59.5898 113.289 62.9688C112.098 63.2812 111.316 63.4375 110.945 63.4375H110.125C109.344 62.9297 108.953 62.6172 108.953 62.5C109.012 62.5 109.441 62.2266 110.242 61.6797C110.105 61.6797 109.988 61.4453 109.891 60.9766L109.656 61.0938C109.188 60.8203 108.953 60.4688 108.953 60.0391V59.2188H109.07L109.422 59.4531H109.539L109.422 58.8672L109.188 58.9844H108.953V58.1641C108.953 56.5625 110.359 52.1094 113.172 44.8047C112.859 44.6875 112.625 44.4922 112.469 44.2188C112.469 43.418 113.211 42.168 114.695 40.4688C114.891 39.1406 115.164 38.4766 115.516 38.4766ZM112.938 51.9531H113.055C113.875 51.8359 115.281 50.8984 117.273 49.1406H117.391V49.2578L117.273 49.4922C117.43 49.4922 117.742 49.2188 118.211 48.6719H118.328V48.4375H118.094C118.348 47.832 118.699 47.3633 119.148 47.0312H119.5L119.734 46.4453C119.656 46.2891 119.617 46.1719 119.617 46.0938C119.617 46.0156 119.93 45.3125 120.555 43.9844C120.555 43.9062 120.516 43.8672 120.438 43.8672L120.555 43.2812V41.9922C120.555 41.3867 120.32 40.957 119.852 40.7031H119.266C117.566 40.7031 116.512 41.8359 116.102 44.1016L114.578 47.7344C114.031 49.2773 113.484 50.6836 112.938 51.9531ZM119.852 45.9766V46.4453H119.969L120.086 45.9766H119.852ZM117.977 48.4375H118.094C118.094 48.5547 117.977 48.6719 117.742 48.7891V48.6719C117.762 48.5156 117.84 48.4375 117.977 48.4375ZM117.977 49.1406L117.742 49.4922L117.977 49.6094H118.094C118.094 49.5312 118.133 49.4141 118.211 49.2578L117.977 49.1406ZM113.172 55H113.055L111.883 54.8828C111.492 56.6211 111.18 57.7148 110.945 58.1641C110.945 58.2422 110.984 58.2812 111.062 58.2812C110.984 59.375 110.906 59.9219 110.828 59.9219L111.18 61.6797L111.883 61.3281C112.117 61.4062 112.234 61.4844 112.234 61.5625C113.094 61.25 114.305 60.625 115.867 59.6875C116.023 59.7656 116.141 59.8047 116.219 59.8047C116.844 59.2969 117.156 58.9453 117.156 58.75C118.562 57.8711 119.266 57.3633 119.266 57.2266L119.734 56.875C119.891 56.9531 120.008 56.9922 120.086 56.9922C120.711 56.2109 121.062 55.8203 121.141 55.8203L121.023 55.5859C121.648 54.9219 122 54.1797 122.078 53.3594V53.125C122.078 52.1875 121.609 51.7188 120.672 51.7188H120.086C117.938 51.7188 115.633 52.8125 113.172 55ZM110.242 53.7109V53.9453H110.477V53.7109H110.242ZM121.961 54.7656C121.648 55.2148 121.492 55.5273 121.492 55.7031C121.57 55.7031 121.766 55.4297 122.078 54.8828V54.7656H121.961ZM109.773 55V55.2344C109.793 55.3906 109.871 55.4688 110.008 55.4688V55H109.773Z" fill="#0D0D0A"/>
<path d="M133.068 49.9609C133.732 49.9023 134.377 50.2148 135.002 50.8984L135.031 51.25C135.051 51.4648 134.602 51.7578 133.684 52.1289C130.363 56.0547 128.479 58.9453 128.029 60.8008H128.146L128.527 61.0059L130.52 59.0137L130.754 59.1016C130.754 59.043 131.047 58.7109 131.633 58.1055L131.516 57.9004C131.516 57.7441 131.584 57.6562 131.721 57.6367L131.955 57.7539C131.936 57.3828 132.16 57.168 132.629 57.1094V56.9922C132.395 57.0117 132.268 56.9434 132.248 56.7871C132.326 56.7871 132.551 56.582 132.922 56.1719L133.273 56.1426C134.426 54.6582 135.08 53.916 135.236 53.916L135.822 53.8574C136.564 54.2676 137.023 54.6387 137.199 54.9707L137.229 55.3223L135.822 58.75C135.627 59.6094 135.5 60.0391 135.441 60.0391V60.1562C135.5 61.0156 135.686 61.4355 135.998 61.416C136.076 61.416 136.457 61.1621 137.141 60.6543H137.258C137.258 60.8105 137.297 60.8789 137.375 60.8594C138.84 59.7266 140.178 58.5547 141.389 57.3438C141.564 57.6172 141.662 57.959 141.682 58.3691C141.135 59.6973 139.904 61.2598 137.99 63.0566C137.424 63.4082 136.887 63.6035 136.379 63.6426C134.465 63.1738 133.479 62.4121 133.42 61.3574C133.303 61.3574 133.137 60.752 132.922 59.541C132.707 59.1504 131.555 60.3223 129.465 63.0566C128.801 63.4082 128.381 63.5938 128.205 63.6133L127.854 63.6426C127.033 63.6816 126.262 63.1348 125.539 62.002L125.48 61.2988C125.48 61.123 125.51 60.9668 125.568 60.8301L125.451 60.5957C125.881 59.0137 126.262 58.2129 126.594 58.1934L126.447 57.959C126.721 57.7246 126.896 57.4023 126.975 56.9922C127.287 56.7969 128.117 55.5371 129.465 53.2129C130.832 51.1035 132.033 50.0195 133.068 49.9609Z" fill="#0D0D0A"/>
<path d="M149.332 38.7109C149.703 38.7109 150.172 39.1406 150.738 40C150.738 40.3711 149.918 42.1289 148.277 45.2734C146.402 49.043 145.152 53.6523 144.527 59.1016L144.645 59.3359C144.566 59.7461 144.527 59.9805 144.527 60.0391C144.605 60.7812 144.684 61.2109 144.762 61.3281C145.914 61.3281 148.102 60.3516 151.324 58.3984L151.441 58.6328V58.75C151.441 59.4922 149.84 60.9375 146.637 63.0859C146.266 63.3203 145.68 63.4375 144.879 63.4375H144.645C143.16 62.7539 142.418 61.8945 142.418 60.8594C142.281 60.8594 142.203 60.5859 142.184 60.0391V58.2812C142.242 57.8125 142.359 57.5781 142.535 57.5781L142.418 56.9922V56.4062C142.418 56.1133 142.535 55.8789 142.77 55.7031V55.3516H142.887V55.1172H142.652V54.8828C142.965 54.8828 143.16 54.2969 143.238 53.125L143.121 52.6562C143.453 52.1289 143.805 51.0742 144.176 49.4922C144.098 49.3359 144.059 49.2188 144.059 49.1406C144.156 49.1406 144.43 48.7891 144.879 48.0859V48.3203H144.996C144.996 48.2422 145.035 48.125 145.113 47.9688V47.8516H144.996V48.0859H144.879V47.6172C145.66 45.8398 146.129 44.5508 146.285 43.75C146.734 42.9297 147.359 41.5625 148.16 39.6484C148.414 39.0234 148.805 38.7109 149.332 38.7109Z" fill="#0D0D0A"/>
<path d="M159.004 38.7109C159.375 38.7109 159.844 39.1406 160.41 40C160.41 40.3711 159.59 42.1289 157.949 45.2734C156.074 49.043 154.824 53.6523 154.199 59.1016L154.316 59.3359C154.238 59.7461 154.199 59.9805 154.199 60.0391C154.277 60.7812 154.355 61.2109 154.434 61.3281C155.586 61.3281 157.773 60.3516 160.996 58.3984L161.113 58.6328V58.75C161.113 59.4922 159.512 60.9375 156.309 63.0859C155.938 63.3203 155.352 63.4375 154.551 63.4375H154.316C152.832 62.7539 152.09 61.8945 152.09 60.8594C151.953 60.8594 151.875 60.5859 151.855 60.0391V58.2812C151.914 57.8125 152.031 57.5781 152.207 57.5781L152.09 56.9922V56.4062C152.09 56.1133 152.207 55.8789 152.441 55.7031V55.3516H152.559V55.1172H152.324V54.8828C152.637 54.8828 152.832 54.2969 152.91 53.125L152.793 52.6562C153.125 52.1289 153.477 51.0742 153.848 49.4922C153.77 49.3359 153.73 49.2188 153.73 49.1406C153.828 49.1406 154.102 48.7891 154.551 48.0859V48.3203H154.668C154.668 48.2422 154.707 48.125 154.785 47.9688V47.8516H154.668V48.0859H154.551V47.6172C155.332 45.8398 155.801 44.5508 155.957 43.75C156.406 42.9297 157.031 41.5625 157.832 39.6484C158.086 39.0234 158.477 38.7109 159.004 38.7109Z" fill="#0D0D0A"/>
</svg>
