<svg width="101" height="69" viewBox="0 0 101 69" fill="none" xmlns="http://www.w3.org/2000/svg">
<g clip-path="url(#clip0_2_642)">
<path d="M54.0725 43.0752C55.9046 41.2829 57.8439 39.583 59.5273 37.6619C60.4775 36.5797 60.1218 35.0305 59.14 34.1478C58.3701 33.4547 57.8074 33.5349 57.2933 34.4128C55.8681 33.9265 55.2883 32.6668 55.8315 31.0082C56.521 28.8779 58.1216 27.5088 59.9732 26.4363C62.0367 25.2374 64.2098 24.2209 66.249 22.9831C70.052 20.6776 73.2995 17.8129 74.9976 13.5449C75.1316 13.2093 75.2412 12.8567 75.3313 12.5065C75.4098 12.1683 75.5309 11.8415 75.6919 11.5338C76.0817 15.1573 74.7564 18.1874 72.4663 20.9062C70.1762 23.6251 66.8215 24.7097 64.0052 26.6722C67.0018 25.3882 70.013 24.1333 72.995 22.8177C77.0124 21.0449 80.9445 19.0677 84.0093 15.8528C85.5782 14.2064 86.772 12.205 88.1315 10.3592C88.2898 10.1428 88.4189 9.90443 88.7308 9.40833C88.5306 11.7391 87.6487 13.9598 86.1946 15.7944C83.3929 19.4811 79.7166 22.0882 75.6286 24.1698C75.2652 24.3374 74.9219 24.5454 74.6053 24.7899C77.982 24.0604 81.0103 22.6304 83.7608 19.987C83.4003 21.9592 82.3989 23.1484 81.2344 24.1966C79.244 26.0034 76.7127 26.6284 74.218 27.358C71.9669 28.0065 69.7288 28.6996 67.5036 29.4372C66.88 29.644 66.3391 30.1036 65.5108 30.5948C67.7327 29.9431 69.6159 29.0919 71.5673 28.8925C75.3435 28.484 79.1563 28.4061 82.9568 28.2602C84.6135 28.1994 86.2775 28.3235 87.939 28.3648C90.278 28.4632 92.5924 27.8555 94.5802 26.6211C93.6057 29.8969 90.8771 30.4513 87.8781 31.1493L89.4105 31.4411L89.4738 31.8375C87.6247 32.212 85.7829 32.8492 83.924 32.9027C80.8129 32.9951 77.6945 32.6595 74.5761 32.6084C72.8599 32.5859 71.1458 32.7366 69.46 33.0583C73.7648 32.9245 77.6336 34.8895 81.9239 35.4488L80.9835 35.8768L83.9533 36.3632C82.9544 37.4478 81.8264 37.8223 80.6424 38.0655C77.8748 38.6273 75.1706 38.2625 72.4809 37.5354C71.3425 37.2336 70.1758 37.0502 68.9995 36.9882C71.1921 38.265 73.1728 39.977 75.9136 40.2737C74.8368 42.2459 72.7928 41.5115 71.2847 41.7328C69.7133 41.959 68.0006 41.2123 66.4122 40.9059L68.4538 44.437C68.3466 44.5829 68.2419 44.7313 68.1371 44.8796L63.9248 43.9069L64.7824 45.9691C61.7906 45.2395 61.4154 47.9146 59.9586 49.1816L60.0463 49.5366C60.7771 49.4831 61.508 49.4686 62.2145 49.3616C63.0697 49.2351 63.5374 49.4588 63.5374 50.4073C63.5374 51.9029 63.6105 53.4009 63.5983 54.8965C63.607 55.2954 63.4837 55.686 63.2475 56.0079C60.3021 59.2715 57.3225 62.5059 54.5671 65.5117C54.8375 64.9402 55.2785 64.0184 55.8023 62.9192C54.6768 62.8949 53.8533 62.8682 53.4708 64.1352C53.0396 65.5943 52.4281 66.9975 51.7484 68.8117C50.4401 66.0564 48.5812 63.9358 48.6007 61.0297C48.63 58.0774 48.764 55.1275 48.764 52.1752C48.7282 51.2171 48.4785 50.2791 48.0331 49.4297C46.1401 54.1742 47.1049 59.0866 46.8149 64.0014C46.2985 63.0287 45.7844 62.0194 45.2338 61.0321C44.3752 59.5134 43.9719 57.7804 44.0717 56.0395C44.196 53.4155 44.1935 50.7818 44.1643 48.1554C44.1336 47.2426 43.8979 46.3484 43.4748 45.5387C41.7305 50.1787 42.4102 54.9427 42.4394 59.6581C41.0995 58.5127 41.2067 56.1465 39.4038 55.4023V45.118L36.4803 45.473L36.9993 43.3694L32.899 44.33C32.7699 44.1574 32.6408 43.9871 32.5141 43.8144L34.6507 40.3247C31.4129 40.8768 28.0728 42.6277 25.1493 40.0329L31.888 36.7912L31.7272 36.3364C30.8355 36.4945 29.9414 36.6331 29.0473 36.8228C26.4405 37.3603 23.8605 38.3282 21.1514 37.6886C19.7408 37.353 18.3984 36.7377 16.7661 36.1638C19.446 35.3515 21.741 34.5806 24.0749 33.9751C26.4088 33.3696 28.7769 32.9562 30.9281 32.5014C27.2956 31.3074 23.5755 33.4595 19.7213 33.0558L21.2537 32.623C17.0463 32.696 12.9315 32.4722 9.39158 29.6707L11.4746 29.5394C9.59865 28.6809 7.11611 29.0214 6.43396 26.2223C10.0713 28.411 13.9474 27.8979 17.6919 27.7763C23.5657 27.5866 29.3518 27.6425 35.0259 30.1498C33.8346 28.9703 32.2973 28.3015 29.8732 27.6474C27.4491 26.9932 24.9349 26.356 22.5644 25.4587C20.3206 24.61 18.5227 23.0901 17.5262 20.8041C17.4317 20.5813 17.3503 20.3531 17.2826 20.1207C17.2607 20.0551 17.2997 19.9724 17.3387 19.7122C19.8017 22.1052 22.7252 23.4281 25.9459 24.1723C19.8553 20.6996 13.9669 17.0736 12.415 9.42293C12.51 9.50561 12.6586 9.56884 12.6951 9.66612C14.7635 14.0605 18.2011 17.2049 22.3695 19.4131C26.7207 21.7185 31.3057 23.5861 35.7909 25.6362C35.8797 25.6637 35.9741 25.6678 36.065 25.6483C36.1559 25.6287 36.2402 25.5859 36.3098 25.5243C34.848 24.7607 33.3668 24.0652 31.9635 23.2238C27.7488 20.6995 25.3125 17.0566 25.142 12.0567C25.142 11.7794 25.1737 11.5022 25.1932 11.2079C25.3101 11.242 25.4368 11.2493 25.4368 11.2833C26.8571 16.9569 30.8306 20.4028 35.7227 23.0585C37.6083 24.0798 39.5573 25.0185 41.326 26.2199C42.5837 27.0953 43.689 28.1707 44.598 29.4032C45.7674 30.9839 45.4214 33.051 44.1278 33.8171C43.9489 33.9019 43.762 33.9687 43.5698 34.0165C43.2361 33.0145 42.8219 32.8856 42.0058 33.4863C41.4389 33.8939 41.0539 34.5064 40.9329 35.1933C40.8118 35.8801 40.9643 36.587 41.3577 37.1633C41.8135 37.7801 42.3355 38.3452 42.9145 38.8486C44.3056 40.1253 45.7284 41.3631 47.3412 42.7931V41.1321C47.3412 38.9435 47.368 36.7548 47.3144 34.5661C47.2827 33.2334 47.1755 31.8764 45.3654 30.9183C47.6311 30.8405 47.3387 29.4883 47.3314 28.2772C47.3314 26.7476 47.3314 25.2155 47.3314 23.6129C45.6845 23.5108 44.8733 24.464 44.079 25.7578C44.0146 25.4917 43.9658 25.2222 43.9328 24.9505C43.8599 23.0924 44.41 21.2631 45.496 19.7523C46.582 18.2414 48.1418 17.1353 49.9285 16.6091C51.0759 16.2565 52.2161 15.8795 53.5829 15.4418V16.9009C53.5829 20.7919 53.5975 24.6684 53.5829 28.5496C53.5829 29.6707 53.4026 30.8186 55.2078 30.9815C53.4537 31.9299 53.5999 33.4353 53.595 34.8725C53.595 37.0977 53.595 39.3228 53.595 41.548V42.832L54.0725 43.0752ZM55.9728 62.4256C57.9389 59.9475 59.5346 57.805 58.8574 54.7944C58.7355 54.2472 58.889 53.5517 58.0022 53.7025C57.2714 53.8265 56.2043 53.3645 56.0825 54.7506C55.9192 56.6013 55.6098 58.4373 55.4783 60.288C55.4344 60.8911 55.7511 61.516 55.9728 62.4256ZM55.4856 53.2477L57.8317 50.4219C57.9336 50.2973 58.0264 50.1656 58.1094 50.0279C58.5464 49.3534 58.7253 48.5444 58.6134 47.749C58.5016 46.9536 58.1064 46.2251 57.5004 45.6968L56.2262 47.7079L55.739 46.903L55.4953 46.9321L55.4856 53.2477Z" fill="white"/>
<path d="M20.2815 26.271C15.275 26.8571 10.8142 25.4441 6.88211 22.4481C5.39355 21.31 4.17786 19.8119 2.89395 18.4257C2.65032 18.1826 2.6966 17.6792 2.72583 17.2439C0.452803 14.4983 -0.197679 12.8397 0.0459473 10.1501C0.121471 10.1501 0.24816 10.1233 0.262778 10.1501C1.72453 12.9881 4.48971 14.3694 6.89674 16.186C9.65783 18.2758 12.3296 20.4807 14.912 22.8007C16.5321 24.2671 18.1303 25.6217 20.2815 26.271Z" fill="white"/>
<path d="M80.4395 26.6994C83.8503 25.8871 85.6945 23.3823 87.9675 21.4028C89.824 19.7856 91.8046 18.3021 93.8146 16.8625C96.3531 15.0337 99.2742 13.6548 100.636 10.5177L101.023 10.6879C100.78 11.9622 100.714 13.3144 100.232 14.4938C99.6616 15.8922 99.6786 17.8425 97.1352 18.0006L98.1438 18.6547C94.9158 24.3259 85.887 28.0102 80.4395 26.6994Z" fill="white"/>
<path d="M50.801 0.766113C53.0619 1.29383 55.33 1.79719 57.5811 2.37111C58.0819 2.53494 58.5461 2.79431 58.9479 3.13475C60.7702 4.51119 60.7483 6.56854 58.7043 7.62154C57.0333 8.50112 55.2334 9.11095 53.3713 9.42841C49.941 9.95856 46.5059 9.78101 43.2949 8.19543C42.8183 7.97296 42.3715 7.69194 41.9647 7.35888C40.4518 6.06513 40.5273 4.3604 42.1377 3.17608C43.9649 1.83125 46.1064 1.42511 48.299 1.20867C49.103 1.13085 49.9142 1.12842 50.7206 1.09195C50.7352 0.982512 50.7718 0.873116 50.801 0.766113ZM50.6573 2.53646L50.5672 2.19603C48.3136 2.75779 46.0381 3.25148 43.8163 3.92511C43.2705 4.09291 42.4958 4.89784 42.547 5.3064C42.6103 5.86087 43.2778 6.55636 43.8723 6.80441C48.5012 8.78638 53.1545 8.72562 57.7078 6.52964C59.0429 5.88519 59.0453 4.95863 57.7785 4.19988C55.5907 2.89397 53.152 2.57294 50.6573 2.53646ZM59.1233 6.46154L54.4627 8.76938C56.2583 8.48972 57.9783 8.05684 59.1233 6.46154Z" fill="white"/>
<path d="M6.36548 33.1709C9.9078 33.5551 13.4111 32.575 16.7269 34.2093C14.678 36.0818 8.42899 35.5152 6.36548 33.1709Z" fill="white"/>
<path d="M84.1118 34.948C85.6296 33.8172 90.4607 33.36 94.5 34.1942C92.8531 34.7486 91.2403 35.4976 89.5495 35.804C87.692 36.124 85.7805 35.8231 84.1118 34.948Z" fill="white"/>
<path d="M34.3895 19.3654C36.9963 21.9456 41.1233 22.6654 42.8969 26.267C39.9734 24.0734 35.7173 23.5141 34.3895 19.3654Z" fill="white"/>
<path d="M57.7148 26.7434C58.3166 26.0406 58.8087 25.1895 59.5372 24.6666C61.7931 23.0543 64.1417 21.5685 66.5438 19.9731C66.3002 21.3812 65.4987 22.371 64.434 23.0738C62.334 24.4599 60.1535 25.722 58.0072 27.0377L57.7148 26.7434Z" fill="white"/>
<path d="M23.7533 38.7786C21.4949 41.3515 18.1085 41.4537 16.5079 39.89C18.9758 39.5519 21.1757 38.477 23.7533 38.7786Z" fill="white"/>
<path d="M76.9786 39.3888C79.6585 38.8708 81.7366 40.0454 83.9609 40.4029C81.3468 42.6013 79.3296 41.0741 76.9786 39.3888Z" fill="white"/>
<path d="M78.5086 17.5508C78.0987 18.5607 77.4574 19.4608 76.6362 20.1787C75.815 20.8966 74.8367 21.4125 73.7798 21.685C74.7957 19.6787 76.7861 18.7667 78.5086 17.5508Z" fill="white"/>
<path d="M27.1687 21.1371C26.1322 20.8491 25.1716 20.3375 24.3549 19.6382C23.5382 18.939 22.8853 18.0692 22.4424 17.0905C24.1331 18.304 26.1285 19.1599 27.1687 21.1371Z" fill="white"/>
<path d="M29.1668 45.4569C28.6796 43.6111 30.1413 41.9186 32.524 42.0037L29.1668 45.4569Z" fill="white"/>
<path d="M71.8248 46.1861L68.4872 42.514C69.7711 42.4046 70.7212 42.8082 71.2158 43.6983C71.5934 44.3792 72.2877 45.1574 71.8248 46.1861Z" fill="white"/>
</g>
<defs>
<clipPath id="clip0_2_642">
<rect width="101" height="68" fill="white" transform="translate(0 0.765625)"/>
</clipPath>
</defs>
</svg>
