<svg width="120" height="40" viewBox="0 0 120 40" fill="none" xmlns="http://www.w3.org/2000/svg">
<g clip-path="url(#clip0_2_705)">
<path d="M109.775 -0.000114141H9.5035C9.138 -0.000114141 8.77688 -0.000114141 8.41235 0.00188586C8.1072 0.00388586 7.80448 0.00969586 7.4964 0.0145859C6.82711 0.0224877 6.1594 0.0815621 5.49906 0.191296C4.83964 0.303419 4.20089 0.514802 3.60439 0.818296C3.00863 1.12436 2.46426 1.52205 1.99104 1.99696C1.51533 2.47052 1.11879 3.0179 0.81667 3.61805C0.513715 4.217 0.303644 4.85883 0.193714 5.52137C0.0827395 6.18307 0.0230228 6.85241 0.0151005 7.52337C0.0058508 7.82997 0.00487401 8.13759 0 8.44423V31.5585C0.00487401 31.869 0.0058508 32.1698 0.0151005 32.4804C0.0230253 33.1513 0.0827419 33.8206 0.193714 34.4823C0.303341 35.1452 0.513424 35.7874 0.81667 36.3866C1.11866 36.9848 1.51525 37.53 1.99104 38.0009C2.46247 38.4779 3.00719 38.8759 3.60439 39.1796C4.20088 39.4839 4.83957 39.6965 5.49906 39.8104C6.15951 39.9192 6.82716 39.9783 7.4964 39.9872C7.80448 39.994 8.1072 39.9979 8.41235 39.9979C8.77687 39.9999 9.13802 39.9999 9.5035 39.9999H109.775C110.133 39.9999 110.497 39.9999 110.855 39.9979C111.159 39.9979 111.47 39.994 111.774 39.9872C112.442 39.9788 113.108 39.9197 113.767 39.8104C114.429 39.6957 115.07 39.4832 115.669 39.1796C116.266 38.8757 116.81 38.4777 117.281 38.0009C117.756 37.5281 118.153 36.9833 118.459 36.3866C118.76 35.787 118.968 35.1448 119.076 34.4823C119.187 33.8205 119.249 33.1514 119.261 32.4804C119.265 32.1698 119.265 31.869 119.265 31.5585C119.273 31.1952 119.273 30.8339 119.273 30.4647V9.53602C119.273 9.16981 119.273 8.80653 119.265 8.44423C119.265 8.13759 119.265 7.82997 119.261 7.52333C119.249 6.85231 119.187 6.18312 119.076 5.52133C118.968 4.85917 118.76 4.21739 118.459 3.61801C117.844 2.41508 116.868 1.43591 115.669 0.818206C115.07 0.515453 114.429 0.304126 113.767 0.191206C113.108 0.0809887 112.442 0.0218936 111.774 0.0144459C111.47 0.00956586 111.159 0.00370586 110.855 0.00175586C110.497 -0.000244141 110.133 -0.000244141 109.775 -0.000244141V-0.000114141Z" fill="#A6A6A6"/>
<path d="M8.41724 39.125C8.11355 39.125 7.81721 39.1211 7.5159 39.1143C6.89173 39.1061 6.26902 39.0516 5.65288 38.9512C5.07835 38.8519 4.52179 38.6673 4.00155 38.4033C3.48609 38.1415 3.01594 37.7983 2.60912 37.3867C2.19642 36.98 1.85282 36.5082 1.59195 35.9902C1.3282 35.4688 1.14568 34.9099 1.05073 34.333C0.948187 33.7131 0.892709 33.0863 0.88477 32.458C0.878451 32.2471 0.870178 31.5449 0.870178 31.5449V8.44434C0.870178 8.44434 0.878989 7.75293 0.88482 7.5498C0.892421 6.92248 0.947577 6.29665 1.04981 5.67773C1.14494 5.09925 1.3276 4.53875 1.59149 4.01563C1.8514 3.49794 2.19309 3.02586 2.60331 2.61768C3.01307 2.20562 3.48472 1.8606 4.00107 1.59521C4.52011 1.33209 5.07562 1.14873 5.64898 1.05127C6.26715 0.949836 6.89202 0.894996 7.51836 0.88721L8.41773 0.875H110.85L111.76 0.8877C112.381 0.895099 113 0.94945 113.613 1.05029C114.192 1.14898 114.753 1.33362 115.278 1.59814C116.313 2.13299 117.154 2.97916 117.685 4.01807C117.945 4.53758 118.125 5.09351 118.219 5.66699C118.322 6.29099 118.38 6.92174 118.392 7.5542C118.395 7.8374 118.395 8.1416 118.395 8.44434C118.403 8.81934 118.403 9.17627 118.403 9.53613V30.4648C118.403 30.8281 118.403 31.1826 118.395 31.54C118.395 31.8652 118.395 32.1631 118.391 32.4697C118.379 33.0909 118.322 33.7104 118.221 34.3232C118.128 34.9043 117.946 35.4675 117.682 35.9932C117.42 36.5056 117.078 36.9733 116.67 37.3789C116.263 37.7927 115.792 38.1379 115.275 38.4014C114.752 38.6674 114.191 38.8527 113.613 38.9512C112.997 39.0522 112.374 39.1067 111.75 39.1143C111.458 39.1211 111.152 39.125 110.855 39.125L109.775 39.127L8.41724 39.125Z" fill="#151516"/>
<path d="M24.6879 20.3006C24.6986 19.4659 24.9196 18.6475 25.3303 17.9216C25.7409 17.1956 26.328 16.5857 27.0367 16.1485C26.5865 15.5034 25.9925 14.9724 25.3019 14.5979C24.6114 14.2233 23.8433 14.0155 23.0586 13.9908C21.3849 13.8146 19.7623 14.9957 18.9093 14.9957C18.0399 14.9957 16.7267 14.0083 15.3126 14.0375C14.398 14.0672 13.5066 14.334 12.7252 14.8121C11.9439 15.2901 11.2994 15.9631 10.8544 16.7654C8.92668 20.1138 10.3646 25.0349 12.2111 27.7415C13.135 29.0668 14.2147 30.5473 15.6275 30.4948C17.01 30.4372 17.5264 29.6103 19.1952 29.6103C20.8486 29.6103 21.333 30.4948 22.7745 30.4614C24.258 30.4372 25.1927 29.1302 26.0841 27.7923C26.7479 26.8479 27.2587 25.8042 27.5976 24.6997C26.7357 24.334 26.0002 23.7218 25.4828 22.9395C24.9653 22.1572 24.6889 21.2394 24.6879 20.3006Z" fill="white"/>
<path d="M21.9652 12.2108C22.774 11.2366 23.1725 9.98445 23.076 8.72021C21.8403 8.85044 20.6987 9.44299 19.8789 10.3798C19.4781 10.8375 19.1711 11.3699 18.9755 11.9467C18.7799 12.5235 18.6995 13.1333 18.739 13.7412C19.3571 13.7476 19.9686 13.6132 20.5274 13.3481C21.0862 13.083 21.5778 12.6942 21.9652 12.2108Z" fill="white"/>
<path d="M42.1639 27.1397H37.446L36.313 30.4961H34.3147L38.7834 18.0781H40.8596L45.3284 30.4961H43.296L42.1639 27.1397ZM37.9347 25.5908H41.6744L39.8308 20.1436H39.7792L37.9347 25.5908Z" fill="white"/>
<path d="M54.9793 25.9697C54.9793 28.7832 53.4783 30.5908 51.2133 30.5908C50.6395 30.6209 50.0689 30.4883 49.5668 30.2082C49.0646 29.928 48.6513 29.5117 48.374 29.0068H48.3311V33.4912H46.4788V21.4423H48.2718V22.9482H48.3059C48.5959 22.4457 49.0162 22.0316 49.5222 21.7497C50.0282 21.4679 50.6008 21.3289 51.1792 21.3476C53.4695 21.3476 54.9793 23.164 54.9793 25.9697ZM53.0754 25.9697C53.0754 24.1367 52.1312 22.9316 50.6906 22.9316C49.2753 22.9316 48.3234 24.1621 48.3234 25.9697C48.3234 27.7939 49.2753 29.0156 50.6906 29.0156C52.1312 29.0156 53.0754 27.8193 53.0754 25.9697Z" fill="white"/>
<path d="M64.9116 25.9697C64.9116 28.7832 63.4107 30.5908 61.1456 30.5908C60.5719 30.6209 60.0012 30.4883 59.4991 30.2081C58.9969 29.928 58.5836 29.5117 58.3063 29.0068H58.2635V33.4912H56.4111V21.4423H58.2041V22.9482H58.2381C58.5281 22.4457 58.9485 22.0315 59.4545 21.7497C59.9604 21.4679 60.5331 21.3289 61.1115 21.3476C63.4019 21.3476 64.9116 23.164 64.9116 25.9697ZM63.0077 25.9697C63.0077 24.1367 62.0635 22.9316 60.6229 22.9316C59.2076 22.9316 58.2557 24.1621 58.2557 25.9697C58.2557 27.7939 59.2076 29.0156 60.6229 29.0156C62.0635 29.0156 63.0077 27.8193 63.0077 25.9697H63.0077Z" fill="white"/>
<path d="M71.476 27.0362C71.6132 28.2676 72.8056 29.0762 74.435 29.0762C75.9963 29.0762 77.1196 28.2676 77.1196 27.1572C77.1196 26.1934 76.4421 25.6162 74.838 25.2207L73.2339 24.833C70.9611 24.2822 69.9059 23.2158 69.9059 21.4854C69.9059 19.3428 71.767 17.8711 74.4097 17.8711C77.0251 17.8711 78.8181 19.3428 78.8785 21.4854H77.0086C76.8967 20.2461 75.8756 19.4981 74.3834 19.4981C72.8912 19.4981 71.8702 20.2549 71.8702 21.3565C71.8702 22.2344 72.5223 22.751 74.1177 23.1465L75.4814 23.4824C78.0209 24.0849 79.076 25.1084 79.076 26.9248C79.076 29.248 77.2315 30.7031 74.2978 30.7031C71.5529 30.7031 69.6996 29.2822 69.5798 27.0361L71.476 27.0362Z" fill="white"/>
<path d="M83.0736 19.2998V21.4424H84.7897V22.9141H83.0736V27.9053C83.0736 28.6807 83.4172 29.042 84.1716 29.042C84.3753 29.0384 84.5787 29.0241 84.7809 28.999V30.4619C84.4418 30.5255 84.097 30.5543 83.7521 30.5478C81.9251 30.5478 81.2125 29.8593 81.2125 28.1035V22.9141H79.9005V21.4424H81.2125V19.2998H83.0736Z" fill="white"/>
<path d="M85.7835 25.9697C85.7835 23.1211 87.4557 21.3311 90.0634 21.3311C92.6798 21.3311 94.3443 23.1211 94.3443 25.9697C94.3443 28.8262 92.6886 30.6084 90.0634 30.6084C87.4392 30.6084 85.7835 28.8262 85.7835 25.9697ZM92.4569 25.9697C92.4569 24.0156 91.5643 22.8623 90.0634 22.8623C88.5625 22.8623 87.6709 24.0244 87.6709 25.9697C87.6709 27.9316 88.5625 29.0762 90.0634 29.0762C91.5643 29.0762 92.4569 27.9316 92.4569 25.9697H92.4569Z" fill="white"/>
<path d="M95.8715 21.4425H97.6381V22.9835H97.681C97.8005 22.5022 98.0815 22.0769 98.4768 21.779C98.8721 21.4811 99.3576 21.3288 99.8516 21.3478C100.065 21.347 100.278 21.3703 100.486 21.4171V23.1554C100.217 23.0728 99.9356 23.0348 99.654 23.0431C99.3849 23.0321 99.1166 23.0797 98.8676 23.1826C98.6186 23.2855 98.3947 23.4412 98.2113 23.6391C98.0279 23.837 97.8894 24.0724 97.8053 24.3291C97.7211 24.5857 97.6933 24.8576 97.7238 25.1261V30.4962H95.8715L95.8715 21.4425Z" fill="white"/>
<path d="M109.027 27.8369C108.777 29.4805 107.182 30.6084 105.141 30.6084C102.516 30.6084 100.886 28.8437 100.886 26.0127C100.886 23.1729 102.525 21.3311 105.063 21.3311C107.56 21.3311 109.13 23.0518 109.13 25.7969V26.4336H102.756V26.5459C102.727 26.8791 102.768 27.2148 102.878 27.5306C102.988 27.8464 103.164 28.1352 103.393 28.3778C103.623 28.6203 103.901 28.8111 104.21 28.9374C104.519 29.0637 104.851 29.1226 105.184 29.1103C105.622 29.1515 106.061 29.0498 106.436 28.8203C106.812 28.5909 107.103 28.246 107.268 27.8369L109.027 27.8369ZM102.765 25.1348H107.277C107.293 24.8352 107.248 24.5354 107.144 24.2541C107.039 23.9729 106.878 23.7164 106.67 23.5006C106.462 23.2849 106.212 23.1145 105.936 23.0003C105.659 22.8861 105.362 22.8305 105.063 22.8369C104.761 22.8351 104.462 22.8933 104.183 23.008C103.904 23.1227 103.65 23.2918 103.437 23.5054C103.223 23.7191 103.054 23.973 102.938 24.2527C102.823 24.5323 102.764 24.8321 102.765 25.1348V25.1348Z" fill="white"/>
<path d="M37.7025 8.73065C38.0908 8.70269 38.4805 8.76155 38.8434 8.90298C39.2063 9.04441 39.5335 9.26489 39.8012 9.54852C40.0689 9.83214 40.2705 10.1718 40.3915 10.5431C40.5125 10.9144 40.5499 11.308 40.5009 11.6955C40.5009 13.6017 39.474 14.6975 37.7025 14.6975H35.5543V8.73065H37.7025ZM36.478 13.8536H37.5993C37.8768 13.8703 38.1545 13.8246 38.4122 13.72C38.6699 13.6154 38.9011 13.4545 39.089 13.2489C39.2768 13.0433 39.4167 12.7983 39.4983 12.5317C39.5798 12.2651 39.6012 11.9836 39.5606 11.7076C39.5982 11.4328 39.5747 11.153 39.4919 10.8884C39.4091 10.6237 39.2689 10.3807 39.0814 10.1768C38.894 9.97285 38.6639 9.81304 38.4077 9.70881C38.1514 9.60457 37.8754 9.55849 37.5993 9.57386H36.478V13.8536Z" fill="white"/>
<path d="M41.5444 12.444C41.5162 12.1481 41.5499 11.8496 41.6434 11.5675C41.737 11.2854 41.8882 11.0261 42.0875 10.8061C42.2868 10.5861 42.5297 10.4103 42.8007 10.2901C43.0716 10.1698 43.3647 10.1077 43.661 10.1077C43.9573 10.1077 44.2503 10.1698 44.5213 10.2901C44.7922 10.4103 45.0351 10.5861 45.2344 10.8061C45.4337 11.0261 45.585 11.2854 45.6785 11.5675C45.772 11.8496 45.8058 12.1481 45.7776 12.444C45.8063 12.7403 45.773 13.0392 45.6797 13.3218C45.5864 13.6043 45.4352 13.8641 45.2359 14.0845C45.0366 14.3049 44.7935 14.4811 44.5222 14.6016C44.251 14.7221 43.9576 14.7844 43.661 14.7844C43.3643 14.7844 43.0709 14.7221 42.7997 14.6016C42.5285 14.4811 42.2854 14.3049 42.086 14.0845C41.8867 13.8641 41.7355 13.6043 41.6422 13.3218C41.549 13.0392 41.5156 12.7403 41.5444 12.444ZM44.8665 12.444C44.8665 11.468 44.4294 10.8972 43.6624 10.8972C42.8925 10.8972 42.4594 11.468 42.4594 12.4441C42.4594 13.4279 42.8925 13.9943 43.6624 13.9943C44.4295 13.9943 44.8665 13.424 44.8665 12.444H44.8665Z" fill="white"/>
<path d="M51.4046 14.6975H50.4857L49.5581 11.3811H49.488L48.5643 14.6975H47.6542L46.4171 10.1946H47.3155L48.1195 13.6306H48.1857L49.1084 10.1946H49.9582L50.8809 13.6306H50.951L51.7511 10.1946H52.6369L51.4046 14.6975Z" fill="white"/>
<path d="M53.6774 10.1946H54.53V10.91H54.5962C54.7085 10.653 54.8979 10.4377 55.138 10.2939C55.3781 10.15 55.6569 10.085 55.9356 10.1077C56.154 10.0912 56.3732 10.1243 56.5772 10.2044C56.7811 10.2845 56.9645 10.4096 57.1137 10.5704C57.2628 10.7313 57.3741 10.9237 57.439 11.1335C57.504 11.3434 57.5211 11.5652 57.4891 11.7825V14.6975H56.6033V12.0057C56.6033 11.282 56.2899 10.9222 55.6348 10.9222C55.4865 10.9152 55.3385 10.9406 55.2009 10.9964C55.0633 11.0522 54.9394 11.1372 54.8376 11.2456C54.7358 11.354 54.6586 11.4832 54.6112 11.6243C54.5638 11.7655 54.5474 11.9152 54.5631 12.0633V14.6976H53.6774L53.6774 10.1946Z" fill="white"/>
<path d="M58.9005 8.43677H59.7863V14.6975H58.9005V8.43677Z" fill="white"/>
<path d="M61.0176 12.4441C60.9894 12.1482 61.0232 11.8496 61.1167 11.5675C61.2103 11.2854 61.3616 11.0261 61.5609 10.8061C61.7602 10.5861 62.0031 10.4104 62.2741 10.2901C62.5451 10.1698 62.8381 10.1077 63.1345 10.1077C63.4308 10.1077 63.7238 10.1698 63.9948 10.2901C64.2658 10.4104 64.5087 10.5861 64.708 10.8061C64.9073 11.0261 65.0586 11.2854 65.1522 11.5675C65.2457 11.8496 65.2795 12.1482 65.2513 12.4441C65.28 12.7404 65.2466 13.0393 65.1533 13.3219C65.06 13.6044 64.9088 13.8642 64.7094 14.0846C64.5101 14.305 64.267 14.4811 63.9957 14.6017C63.7245 14.7222 63.4311 14.7845 63.1345 14.7845C62.8378 14.7845 62.5444 14.7222 62.2732 14.6017C62.0019 14.4811 61.7588 14.305 61.5595 14.0846C61.3601 13.8642 61.2089 13.6044 61.1156 13.3219C61.0223 13.0393 60.9889 12.7404 61.0176 12.4441ZM64.3397 12.4441C64.3397 11.4681 63.9027 10.8973 63.1357 10.8973C62.3657 10.8973 61.9326 11.4681 61.9326 12.4441C61.9326 13.428 62.3658 13.9944 63.1357 13.9944C63.9027 13.9944 64.3397 13.4241 64.3397 12.4441H64.3397Z" fill="white"/>
<path d="M66.1838 13.4241C66.1838 12.6135 66.7853 12.1462 67.8531 12.0798L69.0688 12.0095V11.6208C69.0688 11.1453 68.7554 10.8767 68.15 10.8767C67.6555 10.8767 67.3129 11.0588 67.2146 11.3772H66.357C66.4476 10.6038 67.1727 10.1077 68.1909 10.1077C69.3161 10.1077 69.9507 10.6697 69.9507 11.6208V14.6975H69.098V14.0647H69.0279C68.8857 14.2917 68.686 14.4767 68.4491 14.6009C68.2123 14.7252 67.9468 14.7841 67.6798 14.7717C67.4914 14.7914 67.301 14.7712 67.1208 14.7125C66.9407 14.6538 66.7747 14.5579 66.6338 14.4309C66.4928 14.3039 66.38 14.1487 66.3025 13.9753C66.2249 13.8019 66.1845 13.6141 66.1838 13.4241ZM69.0688 13.0393V12.6628L67.9728 12.7331C67.3547 12.7746 67.0744 12.9856 67.0744 13.3826C67.0744 13.7878 67.4248 14.0237 67.9067 14.0237C68.0478 14.038 68.1905 14.0237 68.326 13.9816C68.4616 13.9395 68.5873 13.8705 68.6957 13.7787C68.8042 13.6868 68.8931 13.574 68.9572 13.447C69.0213 13.32 69.0592 13.1813 69.0688 13.0393Z" fill="white"/>
<path d="M71.1148 12.4441C71.1148 11.0213 71.8439 10.1199 72.9778 10.1199C73.2583 10.1069 73.5367 10.1743 73.7804 10.3142C74.0242 10.4541 74.2232 10.6607 74.3542 10.9099H74.4204V8.43677H75.3061V14.6975H74.4574V13.9861H74.3873C74.2461 14.2336 74.0402 14.4376 73.7918 14.5761C73.5433 14.7146 73.2619 14.7822 72.9778 14.7717C71.8361 14.7718 71.1148 13.8704 71.1148 12.4441ZM72.0298 12.4441C72.0298 13.3992 72.4785 13.9739 73.229 13.9739C73.9756 13.9739 74.4369 13.3909 74.4369 12.448C74.4369 11.5095 73.9707 10.9182 73.229 10.9182C72.4834 10.9182 72.0298 11.4968 72.0298 12.4441H72.0298Z" fill="white"/>
<path d="M78.971 12.444C78.9427 12.1481 78.9765 11.8496 79.07 11.5675C79.1635 11.2854 79.3148 11.0261 79.5141 10.8061C79.7134 10.5861 79.9563 10.4103 80.2272 10.2901C80.4982 10.1698 80.7912 10.1077 81.0875 10.1077C81.3838 10.1077 81.6769 10.1698 81.9478 10.2901C82.2188 10.4103 82.4617 10.5861 82.661 10.8061C82.8603 11.0261 83.0115 11.2854 83.1051 11.5675C83.1986 11.8496 83.2323 12.1481 83.2041 12.444C83.2329 12.7403 83.1995 13.0392 83.1063 13.3218C83.013 13.6043 82.8618 13.8641 82.6625 14.0845C82.4631 14.3049 82.22 14.4811 81.9488 14.6016C81.6776 14.7221 81.3842 14.7844 81.0875 14.7844C80.7909 14.7844 80.4975 14.7221 80.2263 14.6016C79.9551 14.4811 79.712 14.3049 79.5126 14.0845C79.3133 13.8641 79.1621 13.6043 79.0688 13.3218C78.9755 13.0392 78.9422 12.7403 78.971 12.444ZM82.293 12.444C82.293 11.468 81.856 10.8972 81.089 10.8972C80.3191 10.8972 79.8859 11.468 79.8859 12.4441C79.8859 13.4279 80.3191 13.9943 81.089 13.9943C81.856 13.9943 82.293 13.424 82.293 12.444Z" fill="white"/>
<path d="M84.3925 10.1946H85.2452V10.91H85.3114C85.4237 10.653 85.6131 10.4377 85.8531 10.2939C86.0932 10.15 86.372 10.085 86.6507 10.1077C86.8691 10.0912 87.0884 10.1243 87.2923 10.2044C87.4963 10.2845 87.6796 10.4096 87.8288 10.5704C87.978 10.7313 88.0892 10.9237 88.1542 11.1335C88.2192 11.3434 88.2363 11.5652 88.2042 11.7825V14.6975H87.3185V12.0057C87.3185 11.282 87.0051 10.9222 86.35 10.9222C86.2017 10.9152 86.0537 10.9406 85.9161 10.9964C85.7785 11.0522 85.6545 11.1372 85.5527 11.2456C85.4509 11.354 85.3737 11.4832 85.3263 11.6243C85.279 11.7655 85.2626 11.9152 85.2783 12.0633V14.6976H84.3925V10.1946Z" fill="white"/>
<path d="M93.2093 9.07349V10.2151H94.1817V10.9636H93.2093V13.2791C93.2093 13.7507 93.4031 13.9573 93.844 13.9573C93.9569 13.9569 94.0696 13.9501 94.1817 13.9368V14.677C94.0227 14.7055 93.8615 14.7207 93.6999 14.7224C92.7149 14.7224 92.3226 14.3747 92.3226 13.5066V10.9636H91.6101V10.215H92.3226V9.07349H93.2093Z" fill="white"/>
<path d="M95.3917 8.43677H96.2696V10.9182H96.3397C96.4575 10.6589 96.652 10.4423 96.8969 10.298C97.1418 10.1536 97.4251 10.0885 97.7082 10.1116C97.9255 10.0997 98.1426 10.1361 98.3443 10.2181C98.5459 10.3002 98.727 10.4259 98.8746 10.5862C99.0222 10.7465 99.1328 10.9376 99.1984 11.1457C99.2639 11.3539 99.2829 11.5739 99.2539 11.7903V14.6975H98.3673V12.0095C98.3673 11.2903 98.0334 10.926 97.4075 10.926C97.2553 10.9135 97.1022 10.9345 96.9589 10.9875C96.8156 11.0406 96.6855 11.1244 96.5779 11.2332C96.4703 11.3419 96.3876 11.4729 96.3357 11.6171C96.2838 11.7612 96.2639 11.915 96.2775 12.0676V14.6975H95.3917L95.3917 8.43677Z" fill="white"/>
<path d="M104.419 13.4818C104.298 13.8933 104.038 14.2493 103.682 14.4874C103.326 14.7256 102.899 14.8307 102.474 14.7845C102.178 14.7923 101.884 14.7355 101.613 14.618C101.341 14.5004 101.098 14.325 100.901 14.1039C100.704 13.8828 100.557 13.6212 100.47 13.3374C100.384 13.0536 100.36 12.7543 100.401 12.4603C100.361 12.1654 100.385 11.8655 100.472 11.5808C100.558 11.2961 100.704 11.0334 100.9 10.8103C101.096 10.5872 101.338 10.409 101.609 10.2878C101.88 10.1666 102.173 10.1052 102.47 10.1077C103.719 10.1077 104.472 10.9637 104.472 12.3777V12.6878H101.303V12.7376C101.289 12.9029 101.31 13.0692 101.364 13.226C101.418 13.3827 101.504 13.5264 101.616 13.6479C101.729 13.7693 101.865 13.8659 102.017 13.9312C102.169 13.9966 102.333 14.0295 102.498 14.0276C102.71 14.0532 102.925 14.0149 103.115 13.9177C103.305 13.8205 103.462 13.6687 103.566 13.4817L104.419 13.4818ZM101.303 12.0306H103.57C103.581 11.8795 103.561 11.7277 103.51 11.5849C103.459 11.4422 103.379 11.3117 103.275 11.2019C103.171 11.092 103.045 11.0052 102.906 10.9471C102.766 10.8889 102.616 10.8606 102.465 10.8641C102.312 10.8622 102.16 10.891 102.018 10.949C101.876 11.0069 101.747 11.0928 101.639 11.2015C101.53 11.3102 101.445 11.4396 101.387 11.582C101.33 11.7244 101.301 11.8769 101.303 12.0306H101.303Z" fill="white"/>
</g>
<defs>
<clipPath id="clip0_2_705">
<rect width="119.273" height="40" fill="white"/>
</clipPath>
</defs>
</svg>
