<svg width="283" height="51" viewBox="0 0 283 51" fill="none" xmlns="http://www.w3.org/2000/svg">
<path d="M93.6488 36V8.61937H102L104.295 25.3219L106.59 8.61937H115.005V36H110.001V16.2694L106.845 36H101.936L98.5894 16.2694V36H93.6488ZM117.43 8.61937H124.857C126.855 8.61937 128.3 9.10812 129.192 10.0856C130.106 11.0631 130.563 12.6569 130.563 14.8669V16.0781C130.563 18.6919 129.628 20.2537 127.758 20.7637C128.905 21.0612 129.713 21.7519 130.18 22.8356C130.648 23.9194 130.882 25.3537 130.882 27.1387C130.882 30.05 130.446 32.26 129.575 33.7687C128.704 35.2562 127.131 36 124.857 36H117.43V8.61937ZM123.901 18.915C124.369 18.915 124.687 18.745 124.857 18.405C125.027 18.0437 125.112 17.5444 125.112 16.9069V14.1656C125.112 13.2731 124.719 12.8269 123.933 12.8269H122.785V18.915H123.901ZM123.327 31.1869C124.751 31.1869 125.463 30.5069 125.463 29.1469V25.7362C125.463 24.9075 125.335 24.2806 125.08 23.8556C124.847 23.4306 124.422 23.2181 123.805 23.2181H122.785V31.155L123.327 31.1869ZM135.233 14.8987C134.872 15.345 134.362 15.7062 133.703 15.9825C133.066 16.2587 132.449 16.3969 131.854 16.3969V12.03C132.789 11.8812 133.714 11.5094 134.628 10.9144C135.563 10.3194 136.232 9.54375 136.636 8.5875H141.034V36H135.233V14.8987ZM156.348 36.255C154.372 36.255 152.895 35.5644 151.917 34.1831C150.961 32.7806 150.483 30.6662 150.483 27.84V16.0462C150.483 13.5175 151.046 11.605 152.172 10.3087C153.299 9.0125 154.977 8.36437 157.209 8.36437C159.015 8.36437 160.417 8.72562 161.416 9.44812C162.415 10.1706 163.106 11.2225 163.488 12.6037C163.871 13.985 164.062 15.7594 164.062 17.9269H158.707V15.4725C158.707 14.8137 158.611 14.3037 158.42 13.9425C158.25 13.5812 157.931 13.4006 157.464 13.4006C156.422 13.4006 155.902 14.0806 155.902 15.4406V28.7006C155.902 29.5294 156.008 30.1562 156.221 30.5812C156.433 31.0062 156.805 31.2187 157.336 31.2187C157.867 31.2187 158.239 31.0062 158.452 30.5812C158.664 30.1562 158.771 29.5294 158.771 28.7006V24.78H157.304V20.0625H163.998V36H161.799L160.874 33.705C159.897 35.405 158.388 36.255 156.348 36.255ZM165.444 36L168.089 8.61937H177.365L179.979 36H174.783L174.401 31.5694H171.086L170.767 36H165.444ZM171.5 27.2025H173.986L172.775 13.2731H172.52L171.5 27.2025ZM181.647 36V8.61937H189.999L192.294 25.3219L194.589 8.61937H203.004V36H197.999V16.2694L194.844 36H189.935L186.588 16.2694V36H181.647ZM205.174 36V8.61937H210.465V36H205.174ZM212.651 36V8.61937H218.293L220.811 21.72V8.61937H226.102V36H220.747L218.006 22.2937V36H212.651ZM234.168 36.255C232.192 36.255 230.715 35.5644 229.737 34.1831C228.781 32.7806 228.303 30.6662 228.303 27.84V16.0462C228.303 13.5175 228.866 11.605 229.992 10.3087C231.119 9.0125 232.797 8.36437 235.029 8.36437C236.835 8.36437 238.237 8.72562 239.236 9.44812C240.235 10.1706 240.925 11.2225 241.308 12.6037C241.69 13.985 241.882 15.7594 241.882 17.9269H236.527V15.4725C236.527 14.8137 236.431 14.3037 236.24 13.9425C236.07 13.5812 235.751 13.4006 235.284 13.4006C234.242 13.4006 233.722 14.0806 233.722 15.4406V28.7006C233.722 29.5294 233.828 30.1562 234.04 30.5812C234.253 31.0062 234.625 31.2187 235.156 31.2187C235.687 31.2187 236.059 31.0062 236.272 30.5812C236.484 30.1562 236.59 29.5294 236.59 28.7006V24.78H235.124V20.0625H241.818V36H239.619L238.694 33.705C237.717 35.405 236.208 36.255 234.168 36.255Z" fill="white"/>
<g clip-path="url(#clip0_2_687)">
<path d="M40.1027 31.7321C41.4614 30.3879 42.8997 29.113 44.1482 27.6721C44.8529 26.8604 44.5891 25.6986 43.8609 25.0365C43.29 24.5167 42.8726 24.5769 42.4914 25.2353C41.4344 24.8705 41.0043 23.9258 41.4073 22.6819C41.9186 21.0841 43.1057 20.0573 44.4789 19.2529C46.0093 18.3537 47.621 17.5913 49.1333 16.663C51.9538 14.9339 54.3623 12.7853 55.6217 9.5844C55.721 9.3327 55.8023 9.06823 55.8692 8.80559C55.9274 8.55195 56.0172 8.3068 56.1366 8.07602C56.4257 10.7936 55.4428 13.0662 53.7444 15.1054C52.0459 17.1445 49.5579 17.9579 47.4692 19.4298C49.6916 18.4668 51.9249 17.5257 54.1364 16.539C57.1159 15.2093 60.0322 13.7265 62.3052 11.3153C63.4688 10.0805 64.3541 8.57945 65.3624 7.19511C65.4798 7.03278 65.5756 6.85401 65.8068 6.48193C65.6584 8.23003 65.0043 9.89555 63.9259 11.2715C61.8481 14.0365 59.1215 15.9918 56.0897 17.5531C55.8201 17.6787 55.5656 17.8347 55.3308 18.0181C57.835 17.471 60.081 16.3985 62.1209 14.4159C61.8535 15.8951 61.1108 16.787 60.2472 17.5731C58.771 18.9283 56.8937 19.397 55.0435 19.9442C53.374 20.4306 51.7141 20.9504 50.0638 21.5036C49.6013 21.6587 49.2002 22.0034 48.5858 22.3718C50.2337 21.883 51.6304 21.2446 53.0776 21.0951C55.8782 20.7887 58.706 20.7303 61.5246 20.6208C62.7533 20.5752 63.9873 20.6683 65.2196 20.6993C66.9543 20.7731 68.6708 20.3173 70.1451 19.3915C69.4223 21.8483 67.3987 22.2642 65.1744 22.7877L66.3109 23.0065L66.3579 23.3038C64.9865 23.5847 63.6206 24.0626 62.2419 24.1027C59.9346 24.172 57.6218 23.9203 55.3091 23.882C54.0363 23.8651 52.765 23.9782 51.5147 24.2194C54.7074 24.1191 57.5767 25.5928 60.7585 26.0123L60.0611 26.3333L62.2636 26.6981C61.5228 27.5116 60.6862 27.7924 59.8081 27.9748C57.7556 28.3962 55.75 28.1226 53.7552 27.5772C52.9109 27.3509 52.0456 27.2134 51.1732 27.1669C52.7994 28.1244 54.2683 29.4084 56.301 29.631C55.5024 31.1101 53.9865 30.5593 52.868 30.7253C51.7026 30.8949 50.4324 30.335 49.2544 30.1051L50.7685 32.7535C50.689 32.8629 50.6113 32.9742 50.5336 33.0854L47.4096 32.3559L48.0456 33.9025C45.8268 33.3553 45.5485 35.3616 44.468 36.3119L44.5331 36.5782C45.0751 36.538 45.6172 36.5271 46.1412 36.4469C46.7754 36.352 47.1223 36.5198 47.1223 37.2311C47.1223 38.3528 47.1765 39.4764 47.1675 40.5981C47.1739 40.8972 47.0824 41.1902 46.9073 41.4316C44.7228 43.8793 42.513 46.3051 40.4695 48.5594C40.6701 48.1308 40.9971 47.4395 41.3856 46.6151C40.5508 46.5969 39.9401 46.5768 39.6564 47.5271C39.3366 48.6214 38.8831 49.6738 38.379 51.0344C37.4087 48.968 36.0301 47.3775 36.0445 45.1979C36.0662 42.9837 36.1656 40.7713 36.1656 38.5571C36.1391 37.8385 35.9539 37.135 35.6236 36.4979C34.2196 40.0564 34.9351 43.7406 34.7201 47.4267C34.3371 46.6972 33.9558 45.9403 33.5475 45.1998C32.9107 44.0607 32.6116 42.761 32.6856 41.4553C32.7778 39.4873 32.776 37.512 32.7543 35.5422C32.7315 34.8576 32.5567 34.187 32.2429 33.5797C30.9492 37.0597 31.4533 40.6327 31.475 44.1693C30.4813 43.3102 30.5608 41.5356 29.2237 40.9774V33.2642L27.0555 33.5304L27.4404 31.9528L24.3995 32.6732C24.3037 32.5437 24.2079 32.416 24.114 32.2865L25.6986 29.6692C23.2973 30.0833 20.8201 31.3965 18.6519 29.4504L23.6496 27.0191L23.5303 26.678C22.869 26.7966 22.2059 26.9005 21.5428 27.0428C19.6095 27.4459 17.6961 28.1718 15.6868 27.6921C14.6407 27.4404 13.6451 26.979 12.4345 26.5485C14.4221 25.9393 16.1241 25.3612 17.8551 24.907C19.586 24.4529 21.3423 24.1428 22.9377 23.8018C20.2437 22.9062 17.4847 24.5203 14.6262 24.2176L15.7627 23.893C12.6423 23.9477 9.59058 23.7799 6.96524 21.6787L8.51007 21.5802C7.11881 20.9364 5.27764 21.1917 4.77173 19.0924C7.46934 20.7339 10.344 20.3491 13.1211 20.2579C17.4774 20.1156 21.7687 20.1576 25.9768 22.038C25.0933 21.1534 23.9532 20.6518 22.1553 20.1612C20.3575 19.6706 18.4929 19.1927 16.7348 18.5197C15.0707 17.8832 13.7373 16.7432 12.9983 15.0288C12.9281 14.8616 12.8678 14.6905 12.8176 14.5162C12.8013 14.467 12.8302 14.405 12.8592 14.2098C14.6859 16.0046 16.8541 16.9968 19.2427 17.5549C14.7256 14.9504 10.3585 12.2309 9.20751 6.49289C9.27798 6.5549 9.3882 6.60232 9.4153 6.67528C10.9493 9.97107 13.4988 12.3294 16.5903 13.9855C19.8173 15.7146 23.2178 17.1153 26.5442 18.6528C26.6101 18.6734 26.6801 18.6766 26.7475 18.6619C26.8149 18.6472 26.8774 18.6152 26.929 18.5689C25.8449 17.9962 24.7463 17.4746 23.7056 16.8435C20.5798 14.9503 18.7729 12.2181 18.6465 8.46819C18.6465 8.26026 18.67 8.05234 18.6844 7.83165C18.7711 7.85718 18.8651 7.86267 18.8651 7.8882C19.9185 12.1434 22.8654 14.7278 26.4936 16.7195C27.8921 17.4856 29.3375 18.1896 30.6493 19.0906C31.5821 19.7471 32.4018 20.5537 33.0759 21.4781C33.9432 22.6636 33.6866 24.2139 32.7272 24.7885C32.5945 24.8521 32.4559 24.9022 32.3134 24.938C32.0659 24.1866 31.7587 24.0899 31.1534 24.5404C30.733 24.8461 30.4475 25.3055 30.3577 25.8207C30.2679 26.3358 30.381 26.866 30.6728 27.2982C31.0108 27.7608 31.398 28.1846 31.8274 28.5621C32.8591 29.5197 33.9143 30.448 35.1104 31.5205V30.2748C35.1104 28.6333 35.1303 26.9918 35.0905 25.3503C35.067 24.3508 34.9875 23.333 33.645 22.6144C35.3254 22.556 35.1086 21.5419 35.1032 20.6336C35.1032 19.4864 35.1032 18.3373 35.1032 17.1354C33.8818 17.0588 33.2801 17.7737 32.6911 18.744C32.6433 18.5445 32.607 18.3423 32.5826 18.1385C32.5286 16.745 32.9365 15.373 33.7419 14.2399C34.5473 13.1068 35.7042 12.2772 37.0293 11.8825C37.8803 11.6181 38.7259 11.3354 39.7395 11.007V12.1014C39.7395 15.0196 39.7504 17.927 39.7395 20.8379C39.7395 21.6787 39.6058 22.5396 40.9447 22.6618C39.6438 23.3731 39.7522 24.5021 39.7486 25.5801C39.7486 27.2489 39.7486 28.9178 39.7486 30.5867V31.5497L40.1027 31.7321ZM41.512 46.2449C42.9702 44.3863 44.1536 42.7795 43.6513 40.5215C43.561 40.1111 43.6748 39.5895 43.0171 39.7025C42.4751 39.7956 41.6837 39.449 41.5933 40.4887C41.4723 41.8766 41.2428 43.2537 41.1452 44.6417C41.1127 45.094 41.3476 45.5627 41.512 46.2449ZM41.1507 39.3615L42.8907 37.2421C42.9662 37.1487 43.035 37.0499 43.0966 36.9466C43.4207 36.4408 43.5534 35.834 43.4704 35.2375C43.3875 34.6409 43.0944 34.0945 42.6449 33.6983L41.7 35.2066L41.3386 34.6029L41.1579 34.6248L41.1507 39.3615Z" fill="white"/>
<path d="M15.0417 19.1291C11.3287 19.5687 8.02033 18.509 5.10408 16.262C4.0001 15.4084 3.09849 14.2848 2.14628 13.2452C1.9656 13.0628 1.99992 12.6853 2.0216 12.3588C0.335817 10.2996 -0.14661 9.0557 0.034074 7.03846C0.0900861 7.03846 0.184045 7.01839 0.194886 7.03846C1.27899 9.16695 3.32978 10.2029 5.11494 11.5654C7.16269 13.1327 9.14418 14.7864 11.0594 16.5264C12.261 17.6262 13.4463 18.6421 15.0417 19.1291Z" fill="white"/>
<path d="M59.6577 19.4505C62.1872 18.8413 63.555 16.9627 65.2408 15.478C66.6176 14.2651 68.0866 13.1525 69.5772 12.0728C71.4599 10.7012 73.6263 9.66704 74.6364 7.31421L74.9237 7.44187C74.743 8.3976 74.6942 9.41172 74.3365 10.2963C73.9137 11.3451 73.9263 12.8078 72.0399 12.9264L72.788 13.417C70.3939 17.6703 63.6978 20.4336 59.6577 19.4505Z" fill="white"/>
<path d="M37.6763 0.000488281C39.3531 0.396275 41.0352 0.773797 42.7047 1.20424C43.0762 1.32711 43.4204 1.52164 43.7184 1.77697C45.0699 2.8093 45.0536 4.35231 43.5377 5.14206C42.2985 5.80174 40.9635 6.25912 39.5825 6.49721C37.0385 6.89482 34.4908 6.76166 32.1094 5.57248C31.756 5.40562 31.4246 5.19486 31.1229 4.94507C30.0008 3.97475 30.0568 2.6962 31.2512 1.80796C32.6063 0.799342 34.1945 0.494734 35.8207 0.332407C36.4169 0.274042 37.0186 0.272221 37.6167 0.244863C37.6275 0.162787 37.6546 0.08074 37.6763 0.000488281ZM37.5697 1.32825L37.5029 1.07292C35.8315 1.49424 34.1439 1.86452 32.4961 2.36974C32.0914 2.49559 31.5168 3.09929 31.5547 3.4057C31.6017 3.82155 32.0968 4.34317 32.5376 4.52921C35.9706 6.01569 39.4217 5.97012 42.7987 4.32313C43.7889 3.8398 43.7907 3.14488 42.8511 2.57582C41.2286 1.59638 39.4199 1.35561 37.5697 1.32825ZM43.8485 4.27206L40.392 6.00294C41.7236 5.79319 42.9993 5.46854 43.8485 4.27206Z" fill="white"/>
<path d="M4.72095 24.304C7.3481 24.5921 9.94634 23.8571 12.4055 25.0827C10.8859 26.4871 6.25134 26.0622 4.72095 24.304Z" fill="white"/>
<path d="M62.3812 25.6368C63.5068 24.7887 67.0898 24.4459 70.0855 25.0715C68.8641 25.4873 67.668 26.049 66.414 26.2789C65.0364 26.5189 63.6188 26.2932 62.3812 25.6368Z" fill="white"/>
<path d="M25.5049 13.9497C27.4382 15.8849 30.499 16.4247 31.8144 19.1259C29.6461 17.4808 26.4896 17.0613 25.5049 13.9497Z" fill="white"/>
<path d="M42.804 19.4832C43.2503 18.9561 43.6153 18.3178 44.1555 17.9256C45.8287 16.7164 47.5705 15.602 49.352 14.4055C49.1713 15.4616 48.5769 16.2039 47.7873 16.731C46.2298 17.7706 44.6127 18.7172 43.0208 19.7039L42.804 19.4832Z" fill="white"/>
<path d="M17.6165 28.5095C15.9416 30.4392 13.4301 30.5158 12.243 29.3431C14.0733 29.0895 15.7049 28.2834 17.6165 28.5095Z" fill="white"/>
<path d="M57.0909 28.9674C59.0785 28.5789 60.6197 29.4599 62.2693 29.728C60.3306 31.3768 58.8345 30.2314 57.0909 28.9674Z" fill="white"/>
<path d="M58.2255 12.5889C57.9215 13.3463 57.446 14.0214 56.8369 14.5598C56.2279 15.0983 55.5023 15.4851 54.7184 15.6895C55.4719 14.1848 56.9481 13.5008 58.2255 12.5889Z" fill="white"/>
<path d="M20.1496 15.2789C19.3808 15.0629 18.6684 14.6792 18.0627 14.1547C17.457 13.6303 16.9728 12.978 16.6443 12.2439C17.8982 13.154 19.378 13.796 20.1496 15.2789Z" fill="white"/>
<path d="M21.6315 33.5186C21.2701 32.1343 22.3542 30.8649 24.1213 30.9287L21.6315 33.5186Z" fill="white"/>
<path d="M53.2686 34.0652L50.7932 31.3111C51.7454 31.2291 52.4501 31.5318 52.8169 32.1993C53.0969 32.71 53.6119 33.2937 53.2686 34.0652Z" fill="white"/>
</g>
<defs>
<clipPath id="clip0_2_687">
<rect width="74.9062" height="51" fill="white"/>
</clipPath>
</defs>
</svg>
