<svg width="79" height="38" viewBox="0 0 79 38" fill="none" xmlns="http://www.w3.org/2000/svg">
<g clip-path="url(#clip0_2_666)">
<path d="M42.1093 0.13166C41.8536 0.169289 41.6078 1.10591 41.1137 1.59426C40.7527 1.946 40.3014 1.92473 40.0621 2.35991C39.9709 2.52188 40.0004 2.8 39.8977 3.06585C39.6954 3.59919 38.9859 3.64664 38.9859 4.22743C38.9834 4.85484 39.577 4.97427 40.0925 5.42008C40.4946 5.77755 40.5332 6.02459 41.0199 6.19882C41.436 6.3387 42.0542 5.8798 42.6109 6.04504C43.0672 6.18001 43.5046 6.27735 43.6082 6.74444C43.6994 7.17553 43.6016 7.8422 43.0474 7.76531C42.8608 7.74404 42.0501 7.47328 41.0561 7.57881C39.8549 7.7146 38.4852 8.10397 38.3512 9.4365C38.2772 10.1801 39.2029 11.0578 40.0966 10.8795C40.7141 10.7592 40.4222 10.0336 40.7577 9.6819C41.1992 9.23036 43.6995 11.2566 46.0221 11.2566C47.0005 11.2566 47.7281 11.0103 48.4508 10.2578C48.5183 10.1997 48.6005 10.077 48.7049 10.0688C48.8036 10.077 48.9754 10.1735 49.0321 10.2144C50.9026 11.7106 52.3176 14.7127 59.1951 14.747C60.1628 14.7527 61.2637 15.2125 62.164 16.0288C62.9665 16.7667 63.4351 17.916 63.8914 19.0808C64.5804 20.8289 65.8129 22.5295 67.6833 24.4216C67.7853 24.523 69.3252 25.714 69.4485 25.8024C69.4675 25.8163 69.5809 26.0846 69.5414 26.2343C69.4962 27.3697 69.3301 30.6687 71.8024 30.8184C72.4067 30.8487 72.2489 30.4258 72.2489 30.1354C72.2473 29.5603 72.142 28.9893 72.4462 28.4004C72.8622 27.5914 71.5632 27.2192 71.601 25.4695C71.6281 24.1647 70.5264 24.3872 69.9682 23.3934C69.6459 22.8175 69.3597 22.5124 69.3803 21.8081C69.5061 17.8448 68.5326 15.2403 68.0476 14.6006C67.6685 14.118 67.3553 13.9265 67.7014 13.7032C69.7651 12.3462 70.2329 11.0856 70.2329 11.0856C71.3305 8.51951 72.3171 6.17592 73.6778 5.14359C73.9516 4.93009 74.6546 4.40821 75.0854 4.20371C76.3557 3.6082 77.0233 3.24664 77.3925 2.88998C77.9754 2.32474 78.4375 1.14435 77.8776 0.429413C77.182 -0.453217 75.9791 0.247002 75.4488 0.560297C71.6553 2.8 71.0962 6.75098 69.7824 9.02014C68.7341 10.8328 67.0297 12.1646 65.5053 12.2734C64.3642 12.3576 63.1317 12.1277 61.9058 11.592C58.9238 10.2913 57.2926 8.61195 56.9062 8.31501C56.1053 7.69987 49.8864 1.62453 44.8464 1.37667C44.8464 1.37667 44.2207 0.130024 44.0637 0.110392C43.6953 0.0629463 43.3179 0.853962 43.0474 0.946398C42.7934 1.02983 42.3659 0.089941 42.1093 0.13166Z" fill="white"/>
<path d="M19.9243 36.3883C19.4499 36.3768 19.047 35.9899 19.047 35.5114L19.0487 19.871H13.8673V37.1106C13.8673 37.9564 14.5555 38.6451 15.3998 38.6451H24.4545C25.3047 38.6451 25.9846 37.9564 25.9846 37.1106V19.871H20.8081L20.804 35.5114C20.804 35.9899 20.4012 36.3768 19.9243 36.3883Z" fill="white"/>
<path d="M37.2698 19.871H29.4295C28.5004 19.871 27.7448 20.622 27.7448 21.5545V38.6451H32.9312V22.968C32.9345 22.4878 33.325 22.1075 33.8076 22.1075C34.291 22.1075 34.6799 22.4788 34.6906 22.9549V38.6451H39.8547V22.9549C39.8613 22.4788 40.2494 22.1075 40.7328 22.1075C41.2113 22.1075 41.6076 22.4878 41.6109 22.968V38.6451H46.7973V21.5545C46.7973 20.622 46.0392 19.871 45.1118 19.871H37.2698Z" fill="white"/>
<path d="M10.4119 33.9276H5.17787V38.645H-0.000205994V19.8709H10.4448C11.3796 19.8709 12.1097 20.6268 12.1097 21.5617V32.2351C12.1097 33.1734 11.3508 33.9276 10.4119 33.9276ZM6.93489 23.0006C6.93901 22.4787 6.51146 22.1074 6.05761 22.1074H5.17787V31.6028H6.05761C6.51475 31.6028 6.93901 31.2412 6.93489 30.721V23.0006Z" fill="white"/>
<path d="M55.4903 38.6451V33.9318H53.73V38.6451H48.5543V21.5545C48.5543 20.622 49.3099 19.871 50.239 19.871H58.9821C59.9128 19.871 60.6676 20.622 60.6676 21.5545V38.6451H55.4903ZM55.4903 31.6062V22.9615C55.478 22.4838 55.0915 22.1165 54.6081 22.1165C54.1296 22.1165 53.735 22.4985 53.73 22.9754V31.6062H55.4903Z" fill="white"/>
</g>
<defs>
<clipPath id="clip0_2_666">
<rect width="78.131" height="38.6454" fill="white"/>
</clipPath>
</defs>
</svg>
