<svg width="98" height="49" viewBox="0 0 98 49" fill="none" xmlns="http://www.w3.org/2000/svg">
<g clip-path="url(#clip0_2_533)">
<path d="M52.8185 0.16758C52.4978 0.21529 52.1895 1.40287 51.5697 2.02206C51.117 2.46805 50.5508 2.44108 50.2507 2.99287C50.1362 3.19823 50.1733 3.55087 50.0444 3.88795C49.7907 4.5642 48.9008 4.62436 48.9008 5.36076C48.8977 6.15628 49.6422 6.30771 50.2888 6.87297C50.7931 7.32622 50.8416 7.63945 51.4521 7.86037C51.9739 8.03773 52.7494 7.45587 53.4476 7.66538C54.02 7.83652 54.5686 7.95994 54.6985 8.55217C54.813 9.09876 54.6903 9.94407 53.9952 9.84657C53.7611 9.81961 52.7443 9.4763 51.4975 9.6101C49.9908 9.78227 48.2727 10.276 48.1046 11.9655C48.0118 12.9083 49.173 14.0212 50.294 13.7951C51.0685 13.6427 50.7024 12.7227 51.1232 12.2767C51.6769 11.7042 54.813 14.2733 57.7264 14.2733C58.9536 14.2733 59.8662 13.9611 60.7727 13.0069C60.8573 12.9332 60.9604 12.7777 61.0914 12.7673C61.2151 12.7777 61.4306 12.9 61.5018 12.9519C63.8479 14.8489 65.6227 18.6554 74.2493 18.6989C75.4631 18.7062 76.844 19.2891 77.9732 20.3242C78.9797 21.2597 79.5676 22.717 80.1399 24.1939C81.0041 26.4104 82.55 28.5667 84.8961 30.9657C85.024 31.0943 86.9555 32.6044 87.1102 32.7165C87.1339 32.7341 87.2762 33.0743 87.2267 33.2641C87.17 34.7037 86.9617 38.8867 90.0627 39.0765C90.8207 39.1148 90.6227 38.5786 90.6227 38.2104C90.6207 37.4813 90.4886 36.7573 90.8702 36.0106C91.392 34.9848 89.7626 34.5129 89.8101 32.2943C89.8441 30.64 88.4622 30.9221 87.762 29.662C87.3577 28.9318 86.9988 28.5449 87.0246 27.6519C87.1824 22.6267 85.9614 19.3244 85.353 18.5133C84.8775 17.9013 84.4846 17.6586 84.9188 17.3755C87.5073 15.6548 88.094 14.0565 88.094 14.0565C89.4708 10.8029 90.7083 7.83132 92.415 6.5224C92.7584 6.25169 93.6402 5.58998 94.1806 5.33068C95.7739 4.57561 96.6113 4.11717 97.0743 3.66496C97.8055 2.94827 98.3851 1.45161 97.6828 0.545113C96.8103 -0.574009 95.3015 0.313824 94.6364 0.711063C89.8781 3.55087 89.1769 8.56047 87.5289 11.4376C86.2141 13.736 84.0762 15.4245 82.1642 15.5625C80.7328 15.6693 79.187 15.3779 77.6494 14.6985C73.909 13.0494 71.8629 10.9201 71.3782 10.5436C70.3738 9.7636 62.5733 2.06044 56.2517 1.74617C56.2517 1.74617 55.4668 0.165504 55.2699 0.14061C54.8079 0.0804558 54.3345 1.08341 53.9952 1.20061C53.6765 1.30641 53.1403 0.114681 52.8185 0.16758Z" fill="black"/>
<path d="M24.9918 46.1385C24.3967 46.124 23.8914 45.6334 23.8914 45.0267L23.8935 25.1957H17.3944V47.0544C17.3944 48.1268 18.2576 49.0001 19.3167 49.0001H30.674C31.7404 49.0001 32.5932 48.1268 32.5932 47.0544V25.1957H26.1004L26.0952 45.0267C26.0952 45.6334 25.5899 46.124 24.9918 46.1385Z" fill="black"/>
<path d="M46.7483 25.1957H36.9141C35.7488 25.1957 34.801 26.1479 34.801 27.3303V49.0001H41.3063V29.1225C41.3104 28.5137 41.8003 28.0314 42.4056 28.0314C43.012 28.0314 43.4998 28.5023 43.5132 29.1059V49.0001H49.9906V29.1059C49.9988 28.5023 50.4856 28.0314 51.092 28.0314C51.6922 28.0314 52.1892 28.5137 52.1933 29.1225V49.0001H58.6986V27.3303C58.6986 26.1479 57.7478 25.1957 56.5845 25.1957H46.7483Z" fill="black"/>
<path d="M13.06 43.0185H6.49491V49H2.28882e-05V25.1956H13.1012C14.2738 25.1956 15.1895 26.1539 15.1895 27.3394V40.8726C15.1895 42.0623 14.2377 43.0185 13.06 43.0185ZM8.69875 29.1638C8.70391 28.5021 8.16763 28.0312 7.59837 28.0312H6.49491V40.0709H7.59837C8.17175 40.0709 8.70391 39.6124 8.69875 38.9528V29.1638Z" fill="black"/>
<path d="M69.6024 49.0001V43.0239H67.3944V49.0001H60.9026V27.3303C60.9026 26.1479 61.8503 25.1957 63.0157 25.1957H73.9822C75.1496 25.1957 76.0963 26.1479 76.0963 27.3303V49.0001H69.6024ZM69.6024 40.0752V29.1142C69.5869 28.5085 69.1022 28.0428 68.4958 28.0428C67.8956 28.0428 67.4006 28.5272 67.3944 29.1318V40.0752H69.6024Z" fill="black"/>
</g>
<defs>
<clipPath id="clip0_2_533">
<rect width="98" height="49" fill="white"/>
</clipPath>
</defs>
</svg>
