<svg width="40" height="40" viewBox="0 0 40 40" fill="none" xmlns="http://www.w3.org/2000/svg">
<g clip-path="url(#clip0_2_678)">
<path d="M40 7.59504C38.5283 8.24837 36.9467 8.68837 35.2867 8.8867C36.9817 7.8717 38.2833 6.26337 38.895 4.3467C37.31 5.2867 35.5533 5.97004 33.6833 6.33837C32.1883 4.74337 30.0533 3.7467 27.6933 3.7467C22.395 3.7467 18.5017 8.69004 19.6983 13.8217C12.88 13.48 6.83333 10.2134 2.785 5.24837C0.635 8.9367 1.67 13.7617 5.32333 16.205C3.98 16.1617 2.71333 15.7934 1.60833 15.1784C1.51833 18.98 4.24333 22.5367 8.19 23.3284C7.035 23.6417 5.77 23.715 4.48333 23.4684C5.52667 26.7284 8.55667 29.1 12.15 29.1667C8.7 31.8717 4.35333 33.08 0 32.5667C3.63167 34.895 7.94667 36.2534 12.58 36.2534C27.8167 36.2534 36.425 23.385 35.905 11.8434C37.5083 10.685 38.9 9.24004 40 7.59504Z" fill="white"/>
</g>
<defs>
<clipPath id="clip0_2_678">
<rect width="40" height="40" fill="white"/>
</clipPath>
</defs>
</svg>
